<svg width="48" height="48" viewBox="0 0 48 48" fill="none" xmlns="http://www.w3.org/2000/svg">
<g id="checkin">


<g id="checkin/9">
<g id="fi_9101314">
<g id="Group">
<g id="Vector">
<path d="M24 48C23.5578 48 23.1403 47.7912 22.8739 47.4369L9.36347 29.2264C6.97941 26.0445 5.71875 22.2597 5.71875 18.2812C5.71875 8.20125 13.92 0 24 0C34.08 0 42.2812 8.20125 42.2812 18.2812C42.2812 22.2597 41.0206 26.0445 38.6365 29.2264L25.1261 47.4369C24.8597 47.7912 24.4422 48 24 48Z" fill="#6A7282"/>
<path d="M24 0.5C33.8039 0.5 41.7812 8.47739 41.7812 18.2812C41.7812 22.1516 40.5556 25.8314 38.2363 28.9268L38.2354 28.9287L24.7246 47.1387C24.5522 47.3663 24.2836 47.5 24 47.5C23.7164 47.5 23.4478 47.3663 23.2754 47.1387L9.76465 28.9287L9.76367 28.9268L9.3418 28.3398C7.296 25.3709 6.21875 21.9099 6.21875 18.2812C6.21875 8.47739 14.1961 0.5 24 0.5Z" stroke="white" stroke-opacity="0.15"/>
</g>
<path id="Vector_2" d="M24 25.3125C20.1218 25.3125 16.9688 22.1581 16.9688 18.2812C16.9688 14.4044 20.1218 11.25 24 11.25C27.8782 11.25 31.0312 14.4044 31.0312 18.2812C31.0312 22.1581 27.8782 25.3125 24 25.3125Z" fill="url(#paint0_linear_5791_29385)"/>
</g>
</g>
</g>
</g>
<defs>
<linearGradient id="paint0_linear_5791_29385" x1="24" y1="25.3125" x2="24" y2="11.25" gradientUnits="userSpaceOnUse">
<stop offset="0.00269997" stop-color="white" stop-opacity="0.9"/>
<stop offset="1" stop-color="white" stop-opacity="0.4"/>
</linearGradient>
</defs>
</svg>
