<svg width="260" height="62" viewBox="0 0 260 62" fill="none" xmlns="http://www.w3.org/2000/svg">
<g clip-path="url(#clip0_8159_34742)">
<path d="M28.41 14.4197V16.5497C28.41 22.6897 26.51 26.6197 22.28 28.5797C27.37 30.5397 29.36 35.0697 29.36 41.3797V46.2497C29.36 55.4697 24.44 60.4197 14.94 60.4197H0V0.679688H14.33C24.17 0.679688 28.41 5.19969 28.41 14.4197ZM9.5 9.21969V25.0097H13.21C16.75 25.0097 18.91 23.4697 18.91 18.6897V15.3597C18.91 11.0897 17.44 9.20969 14.07 9.20969H9.49L9.5 9.21969ZM9.5 33.5397V51.8897H14.94C18.14 51.8897 19.86 50.4397 19.86 45.9997V40.7897C19.86 35.2397 18.05 33.5397 13.73 33.5397H9.5Z" fill="white"/>
<path d="M46.0601 25.8597H58.5001V34.3897H46.0601V51.8897H62.4701V60.4197H36.5601V0.679688H62.4701V9.20969H46.0601V25.8497V25.8597Z" fill="white"/>
<path d="M117.49 27.2297H129.75V35.7597H117.49V60.4297H107.99V0.679688H133.12V9.20969H117.49V27.2197V27.2297Z" fill="white"/>
<path d="M141.52 0.679688H151.02V60.4197H141.52V0.679688Z" fill="white"/>
<path d="M181.52 60.4297C181 58.8897 180.66 57.9497 180.66 53.0897V43.6997C180.66 38.1497 178.76 36.0997 174.44 36.0997H171.16V60.4197H161.66V0.679688H175.99C185.83 0.679688 190.07 5.19969 190.07 14.4197V19.1097C190.07 25.2497 188.08 29.2697 183.85 31.2297C188.6 33.1897 190.15 37.7197 190.15 43.9497V53.1697C190.15 56.0697 190.24 58.2097 191.19 60.4197H181.52V60.4297ZM171.16 9.21969V27.5697H174.87C178.41 27.5697 180.57 26.0297 180.57 21.2497V15.3597C180.57 11.0897 179.1 9.20969 175.73 9.20969H171.15L171.16 9.21969Z" fill="white"/>
<path d="M211.91 0C221.15 0 225.9 5.46 225.9 15.02V16.9H216.92V14.42C216.92 10.15 215.19 8.53 212.17 8.53C209.15 8.53 207.42 10.15 207.42 14.42C207.42 26.71 225.99 29.01 225.99 46.08C225.99 55.64 221.15 61.1 211.83 61.1C202.51 61.1 197.67 55.64 197.67 46.08V42.41H206.65V46.68C206.65 50.95 208.55 52.48 211.57 52.48C214.59 52.48 216.49 50.94 216.49 46.68C216.49 34.39 197.92 32.09 197.92 15.02C197.92 5.46 202.67 0 211.91 0Z" fill="white"/>
<path d="M230.61 0.679688H259.97V9.20969H250.04V60.4197H240.54V9.21969H230.61V0.679688Z" fill="white"/>
<path d="M93.2498 0.679688H76.0698V38.0697L93.2498 0.679688Z" fill="white"/>
<path d="M76.0698 60.4205V60.4305H93.2498V22.9805L76.0698 60.4205Z" fill="white"/>
</g>
<defs>
<clipPath id="clip0_8159_34742">
<rect width="259.97" height="61.11" fill="white"/>
</clipPath>
</defs>
</svg>
