<svg preserveAspectRatio="none" width="100%" height="100%" overflow="visible" style="display: block;" viewBox="0 0 42 42" fill="none" xmlns="http://www.w3.org/2000/svg">
<g id="Clip path group">
<mask id="mask0_0_481" style="mask-type:luminance" maskUnits="userSpaceOnUse" x="0" y="0" width="42" height="42">
<g id="clip-path-dot-color">
<path id="Vector" d="M0.724138 13.0346C1.12407 13.0346 1.44828 12.7104 1.44828 12.3105C1.44828 11.9106 1.12407 11.5863 0.724138 11.5863C0.324208 11.5863 0 11.9106 0 12.3105C0 12.7104 0.324208 13.0346 0.724138 13.0346Z" fill="var(--fill-0, white)"/>
<path id="Vector_2" d="M0.724138 14.4833C1.12407 14.4833 1.44828 14.1591 1.44828 13.7591C1.44828 13.3592 1.12407 13.035 0.724138 13.035C0.324208 13.035 0 13.3592 0 13.7591C0 14.1591 0.324208 14.4833 0.724138 14.4833Z" fill="var(--fill-0, white)"/>
<path id="Vector_3" d="M0.724138 17.3789C1.12407 17.3789 1.44828 17.0547 1.44828 16.6547C1.44828 16.2548 1.12407 15.9306 0.724138 15.9306C0.324208 15.9306 0 16.2548 0 16.6547C0 17.0547 0.324208 17.3789 0.724138 17.3789Z" fill="var(--fill-0, white)"/>
<path id="Vector_4" d="M0.724138 20.2756C1.12407 20.2756 1.44828 19.9514 1.44828 19.5514C1.44828 19.1515 1.12407 18.8273 0.724138 18.8273C0.324208 18.8273 0 19.1515 0 19.5514C0 19.9514 0.324208 20.2756 0.724138 20.2756Z" fill="var(--fill-0, white)"/>
<path id="Vector_5" d="M0.724138 23.1723C1.12407 23.1723 1.44828 22.8481 1.44828 22.4482C1.44828 22.0482 1.12407 21.724 0.724138 21.724C0.324208 21.724 0 22.0482 0 22.4482C0 22.8481 0.324208 23.1723 0.724138 23.1723Z" fill="var(--fill-0, white)"/>
<path id="Vector_6" d="M0.724138 24.621C1.12407 24.621 1.44828 24.2968 1.44828 23.8968C1.44828 23.4969 1.12407 23.1727 0.724138 23.1727C0.324208 23.1727 0 23.4969 0 23.8968C0 24.2968 0.324208 24.621 0.724138 24.621Z" fill="var(--fill-0, white)"/>
<path id="Vector_7" d="M0.724138 27.5177C1.12407 27.5177 1.44828 27.1935 1.44828 26.7936C1.44828 26.3936 1.12407 26.0694 0.724138 26.0694C0.324208 26.0694 0 26.3936 0 26.7936C0 27.1935 0.324208 27.5177 0.724138 27.5177Z" fill="var(--fill-0, white)"/>
<path id="Vector_8" d="M2.1725 13.0346C2.57243 13.0346 2.89664 12.7104 2.89664 12.3105C2.89664 11.9106 2.57243 11.5863 2.1725 11.5863C1.77257 11.5863 1.44836 11.9106 1.44836 12.3105C1.44836 12.7104 1.77257 13.0346 2.1725 13.0346Z" fill="var(--fill-0, white)"/>
<path id="Vector_9" d="M2.1725 15.9313C2.57243 15.9313 2.89664 15.6071 2.89664 15.2072C2.89664 14.8073 2.57243 14.4831 2.1725 14.4831C1.77257 14.4831 1.44836 14.8073 1.44836 15.2072C1.44836 15.6071 1.77257 15.9313 2.1725 15.9313Z" fill="var(--fill-0, white)"/>
<path id="Vector_10" d="M2.1725 21.7242C2.57243 21.7242 2.89664 21.4 2.89664 21.0001C2.89664 20.6002 2.57243 20.276 2.1725 20.276C1.77257 20.276 1.44836 20.6002 1.44836 21.0001C1.44836 21.4 1.77257 21.7242 2.1725 21.7242Z" fill="var(--fill-0, white)"/>
<path id="Vector_11" d="M2.1725 23.1723C2.57243 23.1723 2.89664 22.8481 2.89664 22.4482C2.89664 22.0482 2.57243 21.724 2.1725 21.724C1.77257 21.724 1.44836 22.0482 1.44836 22.4482C1.44836 22.8481 1.77257 23.1723 2.1725 23.1723Z" fill="var(--fill-0, white)"/>
<path id="Vector_12" d="M2.1725 27.5177C2.57243 27.5177 2.89664 27.1935 2.89664 26.7936C2.89664 26.3936 2.57243 26.0694 2.1725 26.0694C1.77257 26.0694 1.44836 26.3936 1.44836 26.7936C1.44836 27.1935 1.77257 27.5177 2.1725 27.5177Z" fill="var(--fill-0, white)"/>
<path id="Vector_13" d="M3.62058 13.0346C4.02051 13.0346 4.34472 12.7104 4.34472 12.3105C4.34472 11.9106 4.02051 11.5863 3.62058 11.5863C3.22065 11.5863 2.89644 11.9106 2.89644 12.3105C2.89644 12.7104 3.22065 13.0346 3.62058 13.0346Z" fill="var(--fill-0, white)"/>
<path id="Vector_14" d="M3.62058 15.9313C4.02051 15.9313 4.34472 15.6071 4.34472 15.2072C4.34472 14.8073 4.02051 14.4831 3.62058 14.4831C3.22065 14.4831 2.89644 14.8073 2.89644 15.2072C2.89644 15.6071 3.22065 15.9313 3.62058 15.9313Z" fill="var(--fill-0, white)"/>
<path id="Vector_15" d="M3.62058 23.1723C4.02051 23.1723 4.34472 22.8481 4.34472 22.4482C4.34472 22.0482 4.02051 21.724 3.62058 21.724C3.22065 21.724 2.89644 22.0482 2.89644 22.4482C2.89644 22.8481 3.22065 23.1723 3.62058 23.1723Z" fill="var(--fill-0, white)"/>
<path id="Vector_16" d="M3.62058 27.5177C4.02051 27.5177 4.34472 27.1935 4.34472 26.7936C4.34472 26.3936 4.02051 26.0694 3.62058 26.0694C3.22065 26.0694 2.89644 26.3936 2.89644 26.7936C2.89644 27.1935 3.22065 27.5177 3.62058 27.5177Z" fill="var(--fill-0, white)"/>
<path id="Vector_17" d="M3.62058 28.9652C4.02051 28.9652 4.34472 28.641 4.34472 28.2411C4.34472 27.8411 4.02051 27.5169 3.62058 27.5169C3.22065 27.5169 2.89644 27.8411 2.89644 28.2411C2.89644 28.641 3.22065 28.9652 3.62058 28.9652Z" fill="var(--fill-0, white)"/>
<path id="Vector_18" d="M5.06909 13.0346C5.46902 13.0346 5.79323 12.7104 5.79323 12.3105C5.79323 11.9106 5.46902 11.5863 5.06909 11.5863C4.66916 11.5863 4.34495 11.9106 4.34495 12.3105C4.34495 12.7104 4.66916 13.0346 5.06909 13.0346Z" fill="var(--fill-0, white)"/>
<path id="Vector_19" d="M5.06909 14.4833C5.46902 14.4833 5.79323 14.1591 5.79323 13.7591C5.79323 13.3592 5.46902 13.035 5.06909 13.035C4.66916 13.035 4.34495 13.3592 4.34495 13.7591C4.34495 14.1591 4.66916 14.4833 5.06909 14.4833Z" fill="var(--fill-0, white)"/>
<path id="Vector_20" d="M5.06909 17.3789C5.46902 17.3789 5.79323 17.0547 5.79323 16.6547C5.79323 16.2548 5.46902 15.9306 5.06909 15.9306C4.66916 15.9306 4.34495 16.2548 4.34495 16.6547C4.34495 17.0547 4.66916 17.3789 5.06909 17.3789Z" fill="var(--fill-0, white)"/>
<path id="Vector_21" d="M5.06909 20.2756C5.46902 20.2756 5.79323 19.9514 5.79323 19.5514C5.79323 19.1515 5.46902 18.8273 5.06909 18.8273C4.66916 18.8273 4.34495 19.1515 4.34495 19.5514C4.34495 19.9514 4.66916 20.2756 5.06909 20.2756Z" fill="var(--fill-0, white)"/>
<path id="Vector_22" d="M5.06909 21.7242C5.46902 21.7242 5.79323 21.4 5.79323 21.0001C5.79323 20.6002 5.46902 20.276 5.06909 20.276C4.66916 20.276 4.34495 20.6002 4.34495 21.0001C4.34495 21.4 4.66916 21.7242 5.06909 21.7242Z" fill="var(--fill-0, white)"/>
<path id="Vector_23" d="M5.06909 24.621C5.46902 24.621 5.79323 24.2968 5.79323 23.8968C5.79323 23.4969 5.46902 23.1727 5.06909 23.1727C4.66916 23.1727 4.34495 23.4969 4.34495 23.8968C4.34495 24.2968 4.66916 24.621 5.06909 24.621Z" fill="var(--fill-0, white)"/>
<path id="Vector_24" d="M5.06909 27.5177C5.46902 27.5177 5.79323 27.1935 5.79323 26.7936C5.79323 26.3936 5.46902 26.0694 5.06909 26.0694C4.66916 26.0694 4.34495 26.3936 4.34495 26.7936C4.34495 27.1935 4.66916 27.5177 5.06909 27.5177Z" fill="var(--fill-0, white)"/>
<path id="Vector_25" d="M6.51717 13.0346C6.9171 13.0346 7.24131 12.7104 7.24131 12.3105C7.24131 11.9106 6.9171 11.5863 6.51717 11.5863C6.11724 11.5863 5.79303 11.9106 5.79303 12.3105C5.79303 12.7104 6.11724 13.0346 6.51717 13.0346Z" fill="var(--fill-0, white)"/>
<path id="Vector_26" d="M6.51717 14.4833C6.9171 14.4833 7.24131 14.1591 7.24131 13.7591C7.24131 13.3592 6.9171 13.035 6.51717 13.035C6.11724 13.035 5.79303 13.3592 5.79303 13.7591C5.79303 14.1591 6.11724 14.4833 6.51717 14.4833Z" fill="var(--fill-0, white)"/>
<path id="Vector_27" d="M6.51717 15.9313C6.9171 15.9313 7.24131 15.6071 7.24131 15.2072C7.24131 14.8073 6.9171 14.4831 6.51717 14.4831C6.11724 14.4831 5.79303 14.8073 5.79303 15.2072C5.79303 15.6071 6.11724 15.9313 6.51717 15.9313Z" fill="var(--fill-0, white)"/>
<path id="Vector_28" d="M6.51717 18.8275C6.9171 18.8275 7.24131 18.5033 7.24131 18.1034C7.24131 17.7034 6.9171 17.3792 6.51717 17.3792C6.11724 17.3792 5.79303 17.7034 5.79303 18.1034C5.79303 18.5033 6.11724 18.8275 6.51717 18.8275Z" fill="var(--fill-0, white)"/>
<path id="Vector_29" d="M6.51717 20.2756C6.9171 20.2756 7.24131 19.9514 7.24131 19.5514C7.24131 19.1515 6.9171 18.8273 6.51717 18.8273C6.11724 18.8273 5.79303 19.1515 5.79303 19.5514C5.79303 19.9514 6.11724 20.2756 6.51717 20.2756Z" fill="var(--fill-0, white)"/>
<path id="Vector_30" d="M6.51717 21.7242C6.9171 21.7242 7.24131 21.4 7.24131 21.0001C7.24131 20.6002 6.9171 20.276 6.51717 20.276C6.11724 20.276 5.79303 20.6002 5.79303 21.0001C5.79303 21.4 6.11724 21.7242 6.51717 21.7242Z" fill="var(--fill-0, white)"/>
<path id="Vector_31" d="M6.51717 23.1723C6.9171 23.1723 7.24131 22.8481 7.24131 22.4482C7.24131 22.0482 6.9171 21.724 6.51717 21.724C6.11724 21.724 5.79303 22.0482 5.79303 22.4482C5.79303 22.8481 6.11724 23.1723 6.51717 23.1723Z" fill="var(--fill-0, white)"/>
<path id="Vector_32" d="M6.51717 24.621C6.9171 24.621 7.24131 24.2968 7.24131 23.8968C7.24131 23.4969 6.9171 23.1727 6.51717 23.1727C6.11724 23.1727 5.79303 23.4969 5.79303 23.8968C5.79303 24.2968 6.11724 24.621 6.51717 24.621Z" fill="var(--fill-0, white)"/>
<path id="Vector_33" d="M6.51717 27.5177C6.9171 27.5177 7.24131 27.1935 7.24131 26.7936C7.24131 26.3936 6.9171 26.0694 6.51717 26.0694C6.11724 26.0694 5.79303 26.3936 5.79303 26.7936C5.79303 27.1935 6.11724 27.5177 6.51717 27.5177Z" fill="var(--fill-0, white)"/>
<path id="Vector_34" d="M6.51717 28.9652C6.9171 28.9652 7.24131 28.641 7.24131 28.2411C7.24131 27.8411 6.9171 27.5169 6.51717 27.5169C6.11724 27.5169 5.79303 27.8411 5.79303 28.2411C5.79303 28.641 6.11724 28.9652 6.51717 28.9652Z" fill="var(--fill-0, white)"/>
<path id="Vector_35" d="M7.96567 14.4833C8.3656 14.4833 8.68981 14.1591 8.68981 13.7591C8.68981 13.3592 8.3656 13.035 7.96567 13.035C7.56574 13.035 7.24154 13.3592 7.24154 13.7591C7.24154 14.1591 7.56574 14.4833 7.96567 14.4833Z" fill="var(--fill-0, white)"/>
<path id="Vector_36" d="M7.96567 18.8275C8.3656 18.8275 8.68981 18.5033 8.68981 18.1034C8.68981 17.7034 8.3656 17.3792 7.96567 17.3792C7.56574 17.3792 7.24154 17.7034 7.24154 18.1034C7.24154 18.5033 7.56574 18.8275 7.96567 18.8275Z" fill="var(--fill-0, white)"/>
<path id="Vector_37" d="M7.96567 20.2756C8.3656 20.2756 8.68981 19.9514 8.68981 19.5514C8.68981 19.1515 8.3656 18.8273 7.96567 18.8273C7.56574 18.8273 7.24154 19.1515 7.24154 19.5514C7.24154 19.9514 7.56574 20.2756 7.96567 20.2756Z" fill="var(--fill-0, white)"/>
<path id="Vector_38" d="M7.96567 24.621C8.3656 24.621 8.68981 24.2968 8.68981 23.8968C8.68981 23.4969 8.3656 23.1727 7.96567 23.1727C7.56574 23.1727 7.24154 23.4969 7.24154 23.8968C7.24154 24.2968 7.56574 24.621 7.96567 24.621Z" fill="var(--fill-0, white)"/>
<path id="Vector_39" d="M7.96567 26.069C8.3656 26.069 8.68981 25.7448 8.68981 25.3449C8.68981 24.945 8.3656 24.6208 7.96567 24.6208C7.56574 24.6208 7.24154 24.945 7.24154 25.3449C7.24154 25.7448 7.56574 26.069 7.96567 26.069Z" fill="var(--fill-0, white)"/>
<path id="Vector_40" d="M7.96567 28.9652C8.3656 28.9652 8.68981 28.641 8.68981 28.2411C8.68981 27.8411 8.3656 27.5169 7.96567 27.5169C7.56574 27.5169 7.24154 27.8411 7.24154 28.2411C7.24154 28.641 7.56574 28.9652 7.96567 28.9652Z" fill="var(--fill-0, white)"/>
<path id="Vector_41" d="M7.96567 30.4133C8.3656 30.4133 8.68981 30.0891 8.68981 29.6891C8.68981 29.2892 8.3656 28.965 7.96567 28.965C7.56574 28.965 7.24154 29.2892 7.24154 29.6891C7.24154 30.0891 7.56574 30.4133 7.96567 30.4133Z" fill="var(--fill-0, white)"/>
<path id="Vector_42" d="M9.41361 13.0346C9.81354 13.0346 10.1377 12.7104 10.1377 12.3105C10.1377 11.9106 9.81354 11.5863 9.41361 11.5863C9.01368 11.5863 8.68947 11.9106 8.68947 12.3105C8.68947 12.7104 9.01368 13.0346 9.41361 13.0346Z" fill="var(--fill-0, white)"/>
<path id="Vector_43" d="M9.41361 15.9313C9.81354 15.9313 10.1377 15.6071 10.1377 15.2072C10.1377 14.8073 9.81354 14.4831 9.41361 14.4831C9.01368 14.4831 8.68947 14.8073 8.68947 15.2072C8.68947 15.6071 9.01368 15.9313 9.41361 15.9313Z" fill="var(--fill-0, white)"/>
<path id="Vector_44" d="M9.41361 18.8275C9.81354 18.8275 10.1377 18.5033 10.1377 18.1034C10.1377 17.7034 9.81354 17.3792 9.41361 17.3792C9.01368 17.3792 8.68947 17.7034 8.68947 18.1034C8.68947 18.5033 9.01368 18.8275 9.41361 18.8275Z" fill="var(--fill-0, white)"/>
<path id="Vector_45" d="M9.41361 21.7242C9.81354 21.7242 10.1377 21.4 10.1377 21.0001C10.1377 20.6002 9.81354 20.276 9.41361 20.276C9.01368 20.276 8.68947 20.6002 8.68947 21.0001C8.68947 21.4 9.01368 21.7242 9.41361 21.7242Z" fill="var(--fill-0, white)"/>
<path id="Vector_46" d="M9.41361 24.621C9.81354 24.621 10.1377 24.2968 10.1377 23.8968C10.1377 23.4969 9.81354 23.1727 9.41361 23.1727C9.01368 23.1727 8.68947 23.4969 8.68947 23.8968C8.68947 24.2968 9.01368 24.621 9.41361 24.621Z" fill="var(--fill-0, white)"/>
<path id="Vector_47" d="M9.41361 27.5177C9.81354 27.5177 10.1377 27.1935 10.1377 26.7936C10.1377 26.3936 9.81354 26.0694 9.41361 26.0694C9.01368 26.0694 8.68947 26.3936 8.68947 26.7936C8.68947 27.1935 9.01368 27.5177 9.41361 27.5177Z" fill="var(--fill-0, white)"/>
<path id="Vector_48" d="M9.41361 30.4133C9.81354 30.4133 10.1377 30.0891 10.1377 29.6891C10.1377 29.2892 9.81354 28.965 9.41361 28.965C9.01368 28.965 8.68947 29.2892 8.68947 29.6891C8.68947 30.0891 9.01368 30.4133 9.41361 30.4133Z" fill="var(--fill-0, white)"/>
<path id="Vector_49" d="M10.8621 13.0346C11.262 13.0346 11.5863 12.7104 11.5863 12.3105C11.5863 11.9106 11.262 11.5863 10.8621 11.5863C10.4622 11.5863 10.138 11.9106 10.138 12.3105C10.138 12.7104 10.4622 13.0346 10.8621 13.0346Z" fill="var(--fill-0, white)"/>
<path id="Vector_50" d="M10.8621 14.4833C11.262 14.4833 11.5863 14.1591 11.5863 13.7591C11.5863 13.3592 11.262 13.035 10.8621 13.035C10.4622 13.035 10.138 13.3592 10.138 13.7591C10.138 14.1591 10.4622 14.4833 10.8621 14.4833Z" fill="var(--fill-0, white)"/>
<path id="Vector_51" d="M10.8621 17.3789C11.262 17.3789 11.5863 17.0547 11.5863 16.6547C11.5863 16.2548 11.262 15.9306 10.8621 15.9306C10.4622 15.9306 10.138 16.2548 10.138 16.6547C10.138 17.0547 10.4622 17.3789 10.8621 17.3789Z" fill="var(--fill-0, white)"/>
<path id="Vector_52" d="M10.8621 20.2756C11.262 20.2756 11.5863 19.9514 11.5863 19.5514C11.5863 19.1515 11.262 18.8273 10.8621 18.8273C10.4622 18.8273 10.138 19.1515 10.138 19.5514C10.138 19.9514 10.4622 20.2756 10.8621 20.2756Z" fill="var(--fill-0, white)"/>
<path id="Vector_53" d="M10.8621 21.7242C11.262 21.7242 11.5863 21.4 11.5863 21.0001C11.5863 20.6002 11.262 20.276 10.8621 20.276C10.4622 20.276 10.138 20.6002 10.138 21.0001C10.138 21.4 10.4622 21.7242 10.8621 21.7242Z" fill="var(--fill-0, white)"/>
<path id="Vector_54" d="M10.8621 24.621C11.262 24.621 11.5863 24.2968 11.5863 23.8968C11.5863 23.4969 11.262 23.1727 10.8621 23.1727C10.4622 23.1727 10.138 23.4969 10.138 23.8968C10.138 24.2968 10.4622 24.621 10.8621 24.621Z" fill="var(--fill-0, white)"/>
<path id="Vector_55" d="M10.8621 26.069C11.262 26.069 11.5863 25.7448 11.5863 25.3449C11.5863 24.945 11.262 24.6208 10.8621 24.6208C10.4622 24.6208 10.138 24.945 10.138 25.3449C10.138 25.7448 10.4622 26.069 10.8621 26.069Z" fill="var(--fill-0, white)"/>
<path id="Vector_56" d="M10.8621 27.5177C11.262 27.5177 11.5863 27.1935 11.5863 26.7936C11.5863 26.3936 11.262 26.0694 10.8621 26.0694C10.4622 26.0694 10.138 26.3936 10.138 26.7936C10.138 27.1935 10.4622 27.5177 10.8621 27.5177Z" fill="var(--fill-0, white)"/>
<path id="Vector_57" d="M10.8621 28.9652C11.262 28.9652 11.5863 28.641 11.5863 28.2411C11.5863 27.8411 11.262 27.5169 10.8621 27.5169C10.4622 27.5169 10.138 27.8411 10.138 28.2411C10.138 28.641 10.4622 28.9652 10.8621 28.9652Z" fill="var(--fill-0, white)"/>
<path id="Vector_58" d="M10.8621 30.4133C11.262 30.4133 11.5863 30.0891 11.5863 29.6891C11.5863 29.2892 11.262 28.965 10.8621 28.965C10.4622 28.965 10.138 29.2892 10.138 29.6891C10.138 30.0891 10.4622 30.4133 10.8621 30.4133Z" fill="var(--fill-0, white)"/>
<path id="Vector_59" d="M12.3101 2.89692C12.71 2.89692 13.0342 2.57272 13.0342 2.17279C13.0342 1.77286 12.71 1.44865 12.3101 1.44865C11.9101 1.44865 11.5859 1.77286 11.5859 2.17279C11.5859 2.57272 11.9101 2.89692 12.3101 2.89692Z" fill="var(--fill-0, white)"/>
<path id="Vector_60" d="M12.3101 4.34557C12.71 4.34557 13.0342 4.02137 13.0342 3.62144C13.0342 3.22151 12.71 2.8973 12.3101 2.8973C11.9101 2.8973 11.5859 3.22151 11.5859 3.62144C11.5859 4.02137 11.9101 4.34557 12.3101 4.34557Z" fill="var(--fill-0, white)"/>
<path id="Vector_61" d="M12.3101 7.24116C12.71 7.24116 13.0342 6.91696 13.0342 6.51703C13.0342 6.11709 12.71 5.79289 12.3101 5.79289C11.9101 5.79289 11.5859 6.11709 11.5859 6.51703C11.5859 6.91696 11.9101 7.24116 12.3101 7.24116Z" fill="var(--fill-0, white)"/>
<path id="Vector_62" d="M12.3101 10.1379C12.71 10.1379 13.0342 9.81368 13.0342 9.41375C13.0342 9.01382 12.71 8.68962 12.3101 8.68962C11.9101 8.68962 11.5859 9.01382 11.5859 9.41375C11.5859 9.81368 11.9101 10.1379 12.3101 10.1379Z" fill="var(--fill-0, white)"/>
<path id="Vector_63" d="M12.3101 11.586C12.71 11.586 13.0342 11.2618 13.0342 10.8618C13.0342 10.4619 12.71 10.1377 12.3101 10.1377C11.9101 10.1377 11.5859 10.4619 11.5859 10.8618C11.5859 11.2618 11.9101 11.586 12.3101 11.586Z" fill="var(--fill-0, white)"/>
<path id="Vector_64" d="M12.3101 17.3789C12.71 17.3789 13.0342 17.0547 13.0342 16.6547C13.0342 16.2548 12.71 15.9306 12.3101 15.9306C11.9101 15.9306 11.5859 16.2548 11.5859 16.6547C11.5859 17.0547 11.9101 17.3789 12.3101 17.3789Z" fill="var(--fill-0, white)"/>
<path id="Vector_65" d="M12.3101 18.8275C12.71 18.8275 13.0342 18.5033 13.0342 18.1034C13.0342 17.7034 12.71 17.3792 12.3101 17.3792C11.9101 17.3792 11.5859 17.7034 11.5859 18.1034C11.5859 18.5033 11.9101 18.8275 12.3101 18.8275Z" fill="var(--fill-0, white)"/>
<path id="Vector_66" d="M12.3101 20.2756C12.71 20.2756 13.0342 19.9514 13.0342 19.5514C13.0342 19.1515 12.71 18.8273 12.3101 18.8273C11.9101 18.8273 11.5859 19.1515 11.5859 19.5514C11.5859 19.9514 11.9101 20.2756 12.3101 20.2756Z" fill="var(--fill-0, white)"/>
<path id="Vector_67" d="M12.3101 21.7242C12.71 21.7242 13.0342 21.4 13.0342 21.0001C13.0342 20.6002 12.71 20.276 12.3101 20.276C11.9101 20.276 11.5859 20.6002 11.5859 21.0001C11.5859 21.4 11.9101 21.7242 12.3101 21.7242Z" fill="var(--fill-0, white)"/>
<path id="Vector_68" d="M12.3101 23.1723C12.71 23.1723 13.0342 22.8481 13.0342 22.4482C13.0342 22.0482 12.71 21.724 12.3101 21.724C11.9101 21.724 11.5859 22.0482 11.5859 22.4482C11.5859 22.8481 11.9101 23.1723 12.3101 23.1723Z" fill="var(--fill-0, white)"/>
<path id="Vector_69" d="M12.3101 27.5177C12.71 27.5177 13.0342 27.1935 13.0342 26.7936C13.0342 26.3936 12.71 26.0694 12.3101 26.0694C11.9101 26.0694 11.5859 26.3936 11.5859 26.7936C11.5859 27.1935 11.9101 27.5177 12.3101 27.5177Z" fill="var(--fill-0, white)"/>
<path id="Vector_70" d="M12.3101 33.3106C12.71 33.3106 13.0342 32.9864 13.0342 32.5864C13.0342 32.1865 12.71 31.8623 12.3101 31.8623C11.9101 31.8623 11.5859 32.1865 11.5859 32.5864C11.5859 32.9864 11.9101 33.3106 12.3101 33.3106Z" fill="var(--fill-0, white)"/>
<path id="Vector_71" d="M12.3101 36.2067C12.71 36.2067 13.0342 35.8825 13.0342 35.4826C13.0342 35.0827 12.71 34.7585 12.3101 34.7585C11.9101 34.7585 11.5859 35.0827 11.5859 35.4826C11.5859 35.8825 11.9101 36.2067 12.3101 36.2067Z" fill="var(--fill-0, white)"/>
<path id="Vector_72" d="M12.3101 37.6554C12.71 37.6554 13.0342 37.3312 13.0342 36.9312C13.0342 36.5313 12.71 36.2071 12.3101 36.2071C11.9101 36.2071 11.5859 36.5313 11.5859 36.9312C11.5859 37.3312 11.9101 37.6554 12.3101 37.6554Z" fill="var(--fill-0, white)"/>
<path id="Vector_73" d="M12.3101 39.1035C12.71 39.1035 13.0342 38.7793 13.0342 38.3793C13.0342 37.9794 12.71 37.6552 12.3101 37.6552C11.9101 37.6552 11.5859 37.9794 11.5859 38.3793C11.5859 38.7793 11.9101 39.1035 12.3101 39.1035Z" fill="var(--fill-0, white)"/>
<path id="Vector_74" d="M12.3101 40.551C12.71 40.551 13.0342 40.2268 13.0342 39.8268C13.0342 39.4269 12.71 39.1027 12.3101 39.1027C11.9101 39.1027 11.5859 39.4269 11.5859 39.8268C11.5859 40.2268 11.9101 40.551 12.3101 40.551Z" fill="var(--fill-0, white)"/>
<path id="Vector_75" d="M12.3101 41.9996C12.71 41.9996 13.0342 41.6754 13.0342 41.2755C13.0342 40.8756 12.71 40.5513 12.3101 40.5513C11.9101 40.5513 11.5859 40.8756 11.5859 41.2755C11.5859 41.6754 11.9101 41.9996 12.3101 41.9996Z" fill="var(--fill-0, white)"/>
<path id="Vector_76" d="M13.7587 1.44828C14.1586 1.44828 14.4828 1.12407 14.4828 0.724138C14.4828 0.324208 14.1586 0 13.7587 0C13.3588 0 13.0346 0.324208 13.0346 0.724138C13.0346 1.12407 13.3588 1.44828 13.7587 1.44828Z" fill="var(--fill-0, white)"/>
<path id="Vector_77" d="M13.7587 2.89692C14.1586 2.89692 14.4828 2.57272 14.4828 2.17279C14.4828 1.77286 14.1586 1.44865 13.7587 1.44865C13.3588 1.44865 13.0346 1.77286 13.0346 2.17279C13.0346 2.57272 13.3588 2.89692 13.7587 2.89692Z" fill="var(--fill-0, white)"/>
<path id="Vector_78" d="M13.7587 4.34557C14.1586 4.34557 14.4828 4.02137 14.4828 3.62144C14.4828 3.22151 14.1586 2.8973 13.7587 2.8973C13.3588 2.8973 13.0346 3.22151 13.0346 3.62144C13.0346 4.02137 13.3588 4.34557 13.7587 4.34557Z" fill="var(--fill-0, white)"/>
<path id="Vector_79" d="M13.7587 5.79308C14.1586 5.79308 14.4828 5.46888 14.4828 5.06895C14.4828 4.66902 14.1586 4.34481 13.7587 4.34481C13.3588 4.34481 13.0346 4.66902 13.0346 5.06895C13.0346 5.46888 13.3588 5.79308 13.7587 5.79308Z" fill="var(--fill-0, white)"/>
<path id="Vector_80" d="M13.7587 8.68981C14.1586 8.68981 14.4828 8.3656 14.4828 7.96567C14.4828 7.56574 14.1586 7.24154 13.7587 7.24154C13.3588 7.24154 13.0346 7.56574 13.0346 7.96567C13.0346 8.3656 13.3588 8.68981 13.7587 8.68981Z" fill="var(--fill-0, white)"/>
<path id="Vector_81" d="M13.7587 13.0346C14.1586 13.0346 14.4828 12.7104 14.4828 12.3105C14.4828 11.9106 14.1586 11.5863 13.7587 11.5863C13.3588 11.5863 13.0346 11.9106 13.0346 12.3105C13.0346 12.7104 13.3588 13.0346 13.7587 13.0346Z" fill="var(--fill-0, white)"/>
<path id="Vector_82" d="M13.7587 18.8275C14.1586 18.8275 14.4828 18.5033 14.4828 18.1034C14.4828 17.7034 14.1586 17.3792 13.7587 17.3792C13.3588 17.3792 13.0346 17.7034 13.0346 18.1034C13.0346 18.5033 13.3588 18.8275 13.7587 18.8275Z" fill="var(--fill-0, white)"/>
<path id="Vector_83" d="M13.7587 21.7242C14.1586 21.7242 14.4828 21.4 14.4828 21.0001C14.4828 20.6002 14.1586 20.276 13.7587 20.276C13.3588 20.276 13.0346 20.6002 13.0346 21.0001C13.0346 21.4 13.3588 21.7242 13.7587 21.7242Z" fill="var(--fill-0, white)"/>
<path id="Vector_84" d="M13.7587 24.621C14.1586 24.621 14.4828 24.2968 14.4828 23.8968C14.4828 23.4969 14.1586 23.1727 13.7587 23.1727C13.3588 23.1727 13.0346 23.4969 13.0346 23.8968C13.0346 24.2968 13.3588 24.621 13.7587 24.621Z" fill="var(--fill-0, white)"/>
<path id="Vector_85" d="M13.7587 27.5177C14.1586 27.5177 14.4828 27.1935 14.4828 26.7936C14.4828 26.3936 14.1586 26.0694 13.7587 26.0694C13.3588 26.0694 13.0346 26.3936 13.0346 26.7936C13.0346 27.1935 13.3588 27.5177 13.7587 27.5177Z" fill="var(--fill-0, white)"/>
<path id="Vector_86" d="M13.7587 28.9652C14.1586 28.9652 14.4828 28.641 14.4828 28.2411C14.4828 27.8411 14.1586 27.5169 13.7587 27.5169C13.3588 27.5169 13.0346 27.8411 13.0346 28.2411C13.0346 28.641 13.3588 28.9652 13.7587 28.9652Z" fill="var(--fill-0, white)"/>
<path id="Vector_87" d="M13.7587 31.8619C14.1586 31.8619 14.4828 31.5377 14.4828 31.1378C14.4828 30.7379 14.1586 30.4137 13.7587 30.4137C13.3588 30.4137 13.0346 30.7379 13.0346 31.1378C13.0346 31.5377 13.3588 31.8619 13.7587 31.8619Z" fill="var(--fill-0, white)"/>
<path id="Vector_88" d="M13.7587 34.7587C14.1586 34.7587 14.4828 34.4345 14.4828 34.0345C14.4828 33.6346 14.1586 33.3104 13.7587 33.3104C13.3588 33.3104 13.0346 33.6346 13.0346 34.0345C13.0346 34.4345 13.3588 34.7587 13.7587 34.7587Z" fill="var(--fill-0, white)"/>
<path id="Vector_89" d="M13.7587 39.1035C14.1586 39.1035 14.4828 38.7793 14.4828 38.3793C14.4828 37.9794 14.1586 37.6552 13.7587 37.6552C13.3588 37.6552 13.0346 37.9794 13.0346 38.3793C13.0346 38.7793 13.3588 39.1035 13.7587 39.1035Z" fill="var(--fill-0, white)"/>
<path id="Vector_90" d="M13.7587 41.9996C14.1586 41.9996 14.4828 41.6754 14.4828 41.2755C14.4828 40.8756 14.1586 40.5513 13.7587 40.5513C13.3588 40.5513 13.0346 40.8756 13.0346 41.2755C13.0346 41.6754 13.3588 41.9996 13.7587 41.9996Z" fill="var(--fill-0, white)"/>
<path id="Vector_91" d="M15.2071 1.44828C15.607 1.44828 15.9312 1.12407 15.9312 0.724138C15.9312 0.324208 15.607 0 15.2071 0C14.8071 0 14.4829 0.324208 14.4829 0.724138C14.4829 1.12407 14.8071 1.44828 15.2071 1.44828Z" fill="var(--fill-0, white)"/>
<path id="Vector_92" d="M15.2071 2.89692C15.607 2.89692 15.9312 2.57272 15.9312 2.17279C15.9312 1.77286 15.607 1.44865 15.2071 1.44865C14.8071 1.44865 14.4829 1.77286 14.4829 2.17279C14.4829 2.57272 14.8071 2.89692 15.2071 2.89692Z" fill="var(--fill-0, white)"/>
<path id="Vector_93" d="M15.2071 5.79308C15.607 5.79308 15.9312 5.46888 15.9312 5.06895C15.9312 4.66902 15.607 4.34481 15.2071 4.34481C14.8071 4.34481 14.4829 4.66902 14.4829 5.06895C14.4829 5.46888 14.8071 5.79308 15.2071 5.79308Z" fill="var(--fill-0, white)"/>
<path id="Vector_94" d="M15.2071 7.24116C15.607 7.24116 15.9312 6.91696 15.9312 6.51703C15.9312 6.11709 15.607 5.79289 15.2071 5.79289C14.8071 5.79289 14.4829 6.11709 14.4829 6.51703C14.4829 6.91696 14.8071 7.24116 15.2071 7.24116Z" fill="var(--fill-0, white)"/>
<path id="Vector_95" d="M15.2071 8.68981C15.607 8.68981 15.9312 8.3656 15.9312 7.96567C15.9312 7.56574 15.607 7.24154 15.2071 7.24154C14.8071 7.24154 14.4829 7.56574 14.4829 7.96567C14.4829 8.3656 14.8071 8.68981 15.2071 8.68981Z" fill="var(--fill-0, white)"/>
<path id="Vector_96" d="M15.2071 10.1379C15.607 10.1379 15.9312 9.81368 15.9312 9.41375C15.9312 9.01382 15.607 8.68962 15.2071 8.68962C14.8071 8.68962 14.4829 9.01382 14.4829 9.41375C14.4829 9.81368 14.8071 10.1379 15.2071 10.1379Z" fill="var(--fill-0, white)"/>
<path id="Vector_97" d="M15.2071 13.0346C15.607 13.0346 15.9312 12.7104 15.9312 12.3105C15.9312 11.9106 15.607 11.5863 15.2071 11.5863C14.8071 11.5863 14.4829 11.9106 14.4829 12.3105C14.4829 12.7104 14.8071 13.0346 15.2071 13.0346Z" fill="var(--fill-0, white)"/>
<path id="Vector_98" d="M15.2071 17.3789C15.607 17.3789 15.9312 17.0547 15.9312 16.6547C15.9312 16.2548 15.607 15.9306 15.2071 15.9306C14.8071 15.9306 14.4829 16.2548 14.4829 16.6547C14.4829 17.0547 14.8071 17.3789 15.2071 17.3789Z" fill="var(--fill-0, white)"/>
<path id="Vector_99" d="M15.2071 23.1723C15.607 23.1723 15.9312 22.8481 15.9312 22.4482C15.9312 22.0482 15.607 21.724 15.2071 21.724C14.8071 21.724 14.4829 22.0482 14.4829 22.4482C14.4829 22.8481 14.8071 23.1723 15.2071 23.1723Z" fill="var(--fill-0, white)"/>
<path id="Vector_100" d="M15.2071 24.621C15.607 24.621 15.9312 24.2968 15.9312 23.8968C15.9312 23.4969 15.607 23.1727 15.2071 23.1727C14.8071 23.1727 14.4829 23.4969 14.4829 23.8968C14.4829 24.2968 14.8071 24.621 15.2071 24.621Z" fill="var(--fill-0, white)"/>
<path id="Vector_101" d="M15.2071 27.5177C15.607 27.5177 15.9312 27.1935 15.9312 26.7936C15.9312 26.3936 15.607 26.0694 15.2071 26.0694C14.8071 26.0694 14.4829 26.3936 14.4829 26.7936C14.4829 27.1935 14.8071 27.5177 15.2071 27.5177Z" fill="var(--fill-0, white)"/>
<path id="Vector_102" d="M15.2071 34.7587C15.607 34.7587 15.9312 34.4345 15.9312 34.0345C15.9312 33.6346 15.607 33.3104 15.2071 33.3104C14.8071 33.3104 14.4829 33.6346 14.4829 34.0345C14.4829 34.4345 14.8071 34.7587 15.2071 34.7587Z" fill="var(--fill-0, white)"/>
<path id="Vector_103" d="M15.2071 37.6554C15.607 37.6554 15.9312 37.3312 15.9312 36.9312C15.9312 36.5313 15.607 36.2071 15.2071 36.2071C14.8071 36.2071 14.4829 36.5313 14.4829 36.9312C14.4829 37.3312 14.8071 37.6554 15.2071 37.6554Z" fill="var(--fill-0, white)"/>
<path id="Vector_104" d="M15.2071 40.551C15.607 40.551 15.9312 40.2268 15.9312 39.8268C15.9312 39.4269 15.607 39.1027 15.2071 39.1027C14.8071 39.1027 14.4829 39.4269 14.4829 39.8268C14.4829 40.2268 14.8071 40.551 15.2071 40.551Z" fill="var(--fill-0, white)"/>
<path id="Vector_105" d="M15.2071 41.9996C15.607 41.9996 15.9312 41.6754 15.9312 41.2755C15.9312 40.8756 15.607 40.5513 15.2071 40.5513C14.8071 40.5513 14.4829 40.8756 14.4829 41.2755C14.4829 41.6754 14.8071 41.9996 15.2071 41.9996Z" fill="var(--fill-0, white)"/>
<path id="Vector_106" d="M16.6551 1.44828C17.0551 1.44828 17.3793 1.12407 17.3793 0.724138C17.3793 0.324208 17.0551 0 16.6551 0C16.2552 0 15.931 0.324208 15.931 0.724138C15.931 1.12407 16.2552 1.44828 16.6551 1.44828Z" fill="var(--fill-0, white)"/>
<path id="Vector_107" d="M16.6551 2.89692C17.0551 2.89692 17.3793 2.57272 17.3793 2.17279C17.3793 1.77286 17.0551 1.44865 16.6551 1.44865C16.2552 1.44865 15.931 1.77286 15.931 2.17279C15.931 2.57272 16.2552 2.89692 16.6551 2.89692Z" fill="var(--fill-0, white)"/>
<path id="Vector_108" d="M16.6551 5.79308C17.0551 5.79308 17.3793 5.46888 17.3793 5.06895C17.3793 4.66902 17.0551 4.34481 16.6551 4.34481C16.2552 4.34481 15.931 4.66902 15.931 5.06895C15.931 5.46888 16.2552 5.79308 16.6551 5.79308Z" fill="var(--fill-0, white)"/>
<path id="Vector_109" d="M16.6551 8.68981C17.0551 8.68981 17.3793 8.3656 17.3793 7.96567C17.3793 7.56574 17.0551 7.24154 16.6551 7.24154C16.2552 7.24154 15.931 7.56574 15.931 7.96567C15.931 8.3656 16.2552 8.68981 16.6551 8.68981Z" fill="var(--fill-0, white)"/>
<path id="Vector_110" d="M16.6551 13.0346C17.0551 13.0346 17.3793 12.7104 17.3793 12.3105C17.3793 11.9106 17.0551 11.5863 16.6551 11.5863C16.2552 11.5863 15.931 11.9106 15.931 12.3105C15.931 12.7104 16.2552 13.0346 16.6551 13.0346Z" fill="var(--fill-0, white)"/>
<path id="Vector_111" d="M16.6551 14.4833C17.0551 14.4833 17.3793 14.1591 17.3793 13.7591C17.3793 13.3592 17.0551 13.035 16.6551 13.035C16.2552 13.035 15.931 13.3592 15.931 13.7591C15.931 14.1591 16.2552 14.4833 16.6551 14.4833Z" fill="var(--fill-0, white)"/>
<path id="Vector_112" d="M16.6551 15.9313C17.0551 15.9313 17.3793 15.6071 17.3793 15.2072C17.3793 14.8073 17.0551 14.4831 16.6551 14.4831C16.2552 14.4831 15.931 14.8073 15.931 15.2072C15.931 15.6071 16.2552 15.9313 16.6551 15.9313Z" fill="var(--fill-0, white)"/>
<path id="Vector_113" d="M16.6551 18.8275C17.0551 18.8275 17.3793 18.5033 17.3793 18.1034C17.3793 17.7034 17.0551 17.3792 16.6551 17.3792C16.2552 17.3792 15.931 17.7034 15.931 18.1034C15.931 18.5033 16.2552 18.8275 16.6551 18.8275Z" fill="var(--fill-0, white)"/>
<path id="Vector_114" d="M16.6551 20.2756C17.0551 20.2756 17.3793 19.9514 17.3793 19.5514C17.3793 19.1515 17.0551 18.8273 16.6551 18.8273C16.2552 18.8273 15.931 19.1515 15.931 19.5514C15.931 19.9514 16.2552 20.2756 16.6551 20.2756Z" fill="var(--fill-0, white)"/>
<path id="Vector_115" d="M16.6551 23.1723C17.0551 23.1723 17.3793 22.8481 17.3793 22.4482C17.3793 22.0482 17.0551 21.724 16.6551 21.724C16.2552 21.724 15.931 22.0482 15.931 22.4482C15.931 22.8481 16.2552 23.1723 16.6551 23.1723Z" fill="var(--fill-0, white)"/>
<path id="Vector_116" d="M16.6551 24.621C17.0551 24.621 17.3793 24.2968 17.3793 23.8968C17.3793 23.4969 17.0551 23.1727 16.6551 23.1727C16.2552 23.1727 15.931 23.4969 15.931 23.8968C15.931 24.2968 16.2552 24.621 16.6551 24.621Z" fill="var(--fill-0, white)"/>
<path id="Vector_117" d="M16.6551 26.069C17.0551 26.069 17.3793 25.7448 17.3793 25.3449C17.3793 24.945 17.0551 24.6208 16.6551 24.6208C16.2552 24.6208 15.931 24.945 15.931 25.3449C15.931 25.7448 16.2552 26.069 16.6551 26.069Z" fill="var(--fill-0, white)"/>
<path id="Vector_118" d="M16.6551 27.5177C17.0551 27.5177 17.3793 27.1935 17.3793 26.7936C17.3793 26.3936 17.0551 26.0694 16.6551 26.0694C16.2552 26.0694 15.931 26.3936 15.931 26.7936C15.931 27.1935 16.2552 27.5177 16.6551 27.5177Z" fill="var(--fill-0, white)"/>
<path id="Vector_119" d="M16.6551 28.9652C17.0551 28.9652 17.3793 28.641 17.3793 28.2411C17.3793 27.8411 17.0551 27.5169 16.6551 27.5169C16.2552 27.5169 15.931 27.8411 15.931 28.2411C15.931 28.641 16.2552 28.9652 16.6551 28.9652Z" fill="var(--fill-0, white)"/>
<path id="Vector_120" d="M16.6551 31.8619C17.0551 31.8619 17.3793 31.5377 17.3793 31.1378C17.3793 30.7379 17.0551 30.4137 16.6551 30.4137C16.2552 30.4137 15.931 30.7379 15.931 31.1378C15.931 31.5377 16.2552 31.8619 16.6551 31.8619Z" fill="var(--fill-0, white)"/>
<path id="Vector_121" d="M16.6551 33.3106C17.0551 33.3106 17.3793 32.9864 17.3793 32.5864C17.3793 32.1865 17.0551 31.8623 16.6551 31.8623C16.2552 31.8623 15.931 32.1865 15.931 32.5864C15.931 32.9864 16.2552 33.3106 16.6551 33.3106Z" fill="var(--fill-0, white)"/>
<path id="Vector_122" d="M16.6551 36.2067C17.0551 36.2067 17.3793 35.8825 17.3793 35.4826C17.3793 35.0827 17.0551 34.7585 16.6551 34.7585C16.2552 34.7585 15.931 35.0827 15.931 35.4826C15.931 35.8825 16.2552 36.2067 16.6551 36.2067Z" fill="var(--fill-0, white)"/>
<path id="Vector_123" d="M16.6551 40.551C17.0551 40.551 17.3793 40.2268 17.3793 39.8268C17.3793 39.4269 17.0551 39.1027 16.6551 39.1027C16.2552 39.1027 15.931 39.4269 15.931 39.8268C15.931 40.2268 16.2552 40.551 16.6551 40.551Z" fill="var(--fill-0, white)"/>
<path id="Vector_124" d="M18.1035 2.89692C18.5034 2.89692 18.8276 2.57272 18.8276 2.17279C18.8276 1.77286 18.5034 1.44865 18.1035 1.44865C17.7036 1.44865 17.3794 1.77286 17.3794 2.17279C17.3794 2.57272 17.7036 2.89692 18.1035 2.89692Z" fill="var(--fill-0, white)"/>
<path id="Vector_125" d="M18.1035 7.24116C18.5034 7.24116 18.8276 6.91696 18.8276 6.51703C18.8276 6.11709 18.5034 5.79289 18.1035 5.79289C17.7036 5.79289 17.3794 6.11709 17.3794 6.51703C17.3794 6.91696 17.7036 7.24116 18.1035 7.24116Z" fill="var(--fill-0, white)"/>
<path id="Vector_126" d="M18.1035 8.68981C18.5034 8.68981 18.8276 8.3656 18.8276 7.96567C18.8276 7.56574 18.5034 7.24154 18.1035 7.24154C17.7036 7.24154 17.3794 7.56574 17.3794 7.96567C17.3794 8.3656 17.7036 8.68981 18.1035 8.68981Z" fill="var(--fill-0, white)"/>
<path id="Vector_127" d="M18.1035 10.1379C18.5034 10.1379 18.8276 9.81368 18.8276 9.41375C18.8276 9.01382 18.5034 8.68962 18.1035 8.68962C17.7036 8.68962 17.3794 9.01382 17.3794 9.41375C17.3794 9.81368 17.7036 10.1379 18.1035 10.1379Z" fill="var(--fill-0, white)"/>
<path id="Vector_128" d="M18.1035 13.0346C18.5034 13.0346 18.8276 12.7104 18.8276 12.3105C18.8276 11.9106 18.5034 11.5863 18.1035 11.5863C17.7036 11.5863 17.3794 11.9106 17.3794 12.3105C17.3794 12.7104 17.7036 13.0346 18.1035 13.0346Z" fill="var(--fill-0, white)"/>
<path id="Vector_129" d="M18.1035 15.9313C18.5034 15.9313 18.8276 15.6071 18.8276 15.2072C18.8276 14.8073 18.5034 14.4831 18.1035 14.4831C17.7036 14.4831 17.3794 14.8073 17.3794 15.2072C17.3794 15.6071 17.7036 15.9313 18.1035 15.9313Z" fill="var(--fill-0, white)"/>
<path id="Vector_130" d="M18.1035 17.3789C18.5034 17.3789 18.8276 17.0547 18.8276 16.6547C18.8276 16.2548 18.5034 15.9306 18.1035 15.9306C17.7036 15.9306 17.3794 16.2548 17.3794 16.6547C17.3794 17.0547 17.7036 17.3789 18.1035 17.3789Z" fill="var(--fill-0, white)"/>
<path id="Vector_131" d="M18.1035 18.8275C18.5034 18.8275 18.8276 18.5033 18.8276 18.1034C18.8276 17.7034 18.5034 17.3792 18.1035 17.3792C17.7036 17.3792 17.3794 17.7034 17.3794 18.1034C17.3794 18.5033 17.7036 18.8275 18.1035 18.8275Z" fill="var(--fill-0, white)"/>
<path id="Vector_132" d="M18.1035 20.2756C18.5034 20.2756 18.8276 19.9514 18.8276 19.5514C18.8276 19.1515 18.5034 18.8273 18.1035 18.8273C17.7036 18.8273 17.3794 19.1515 17.3794 19.5514C17.3794 19.9514 17.7036 20.2756 18.1035 20.2756Z" fill="var(--fill-0, white)"/>
<path id="Vector_133" d="M18.1035 26.069C18.5034 26.069 18.8276 25.7448 18.8276 25.3449C18.8276 24.945 18.5034 24.6208 18.1035 24.6208C17.7036 24.6208 17.3794 24.945 17.3794 25.3449C17.3794 25.7448 17.7036 26.069 18.1035 26.069Z" fill="var(--fill-0, white)"/>
<path id="Vector_134" d="M18.1035 30.4133C18.5034 30.4133 18.8276 30.0891 18.8276 29.6891C18.8276 29.2892 18.5034 28.965 18.1035 28.965C17.7036 28.965 17.3794 29.2892 17.3794 29.6891C17.3794 30.0891 17.7036 30.4133 18.1035 30.4133Z" fill="var(--fill-0, white)"/>
<path id="Vector_135" d="M18.1035 33.3106C18.5034 33.3106 18.8276 32.9864 18.8276 32.5864C18.8276 32.1865 18.5034 31.8623 18.1035 31.8623C17.7036 31.8623 17.3794 32.1865 17.3794 32.5864C17.3794 32.9864 17.7036 33.3106 18.1035 33.3106Z" fill="var(--fill-0, white)"/>
<path id="Vector_136" d="M18.1035 34.7587C18.5034 34.7587 18.8276 34.4345 18.8276 34.0345C18.8276 33.6346 18.5034 33.3104 18.1035 33.3104C17.7036 33.3104 17.3794 33.6346 17.3794 34.0345C17.3794 34.4345 17.7036 34.7587 18.1035 34.7587Z" fill="var(--fill-0, white)"/>
<path id="Vector_137" d="M19.5517 1.44828C19.9517 1.44828 20.2759 1.12407 20.2759 0.724138C20.2759 0.324208 19.9517 0 19.5517 0C19.1518 0 18.8276 0.324208 18.8276 0.724138C18.8276 1.12407 19.1518 1.44828 19.5517 1.44828Z" fill="var(--fill-0, white)"/>
<path id="Vector_138" d="M19.5517 2.89692C19.9517 2.89692 20.2759 2.57272 20.2759 2.17279C20.2759 1.77286 19.9517 1.44865 19.5517 1.44865C19.1518 1.44865 18.8276 1.77286 18.8276 2.17279C18.8276 2.57272 19.1518 2.89692 19.5517 2.89692Z" fill="var(--fill-0, white)"/>
<path id="Vector_139" d="M19.5517 4.34557C19.9517 4.34557 20.2759 4.02137 20.2759 3.62144C20.2759 3.22151 19.9517 2.8973 19.5517 2.8973C19.1518 2.8973 18.8276 3.22151 18.8276 3.62144C18.8276 4.02137 19.1518 4.34557 19.5517 4.34557Z" fill="var(--fill-0, white)"/>
<path id="Vector_140" d="M19.5517 7.24116C19.9517 7.24116 20.2759 6.91696 20.2759 6.51703C20.2759 6.11709 19.9517 5.79289 19.5517 5.79289C19.1518 5.79289 18.8276 6.11709 18.8276 6.51703C18.8276 6.91696 19.1518 7.24116 19.5517 7.24116Z" fill="var(--fill-0, white)"/>
<path id="Vector_141" d="M19.5517 13.0346C19.9517 13.0346 20.2759 12.7104 20.2759 12.3105C20.2759 11.9106 19.9517 11.5863 19.5517 11.5863C19.1518 11.5863 18.8276 11.9106 18.8276 12.3105C18.8276 12.7104 19.1518 13.0346 19.5517 13.0346Z" fill="var(--fill-0, white)"/>
<path id="Vector_142" d="M19.5517 14.4833C19.9517 14.4833 20.2759 14.1591 20.2759 13.7591C20.2759 13.3592 19.9517 13.035 19.5517 13.035C19.1518 13.035 18.8276 13.3592 18.8276 13.7591C18.8276 14.1591 19.1518 14.4833 19.5517 14.4833Z" fill="var(--fill-0, white)"/>
<path id="Vector_143" d="M19.5517 15.9313C19.9517 15.9313 20.2759 15.6071 20.2759 15.2072C20.2759 14.8073 19.9517 14.4831 19.5517 14.4831C19.1518 14.4831 18.8276 14.8073 18.8276 15.2072C18.8276 15.6071 19.1518 15.9313 19.5517 15.9313Z" fill="var(--fill-0, white)"/>
<path id="Vector_144" d="M19.5517 17.3789C19.9517 17.3789 20.2759 17.0547 20.2759 16.6547C20.2759 16.2548 19.9517 15.9306 19.5517 15.9306C19.1518 15.9306 18.8276 16.2548 18.8276 16.6547C18.8276 17.0547 19.1518 17.3789 19.5517 17.3789Z" fill="var(--fill-0, white)"/>
<path id="Vector_145" d="M19.5517 21.7242C19.9517 21.7242 20.2759 21.4 20.2759 21.0001C20.2759 20.6002 19.9517 20.276 19.5517 20.276C19.1518 20.276 18.8276 20.6002 18.8276 21.0001C18.8276 21.4 19.1518 21.7242 19.5517 21.7242Z" fill="var(--fill-0, white)"/>
<path id="Vector_146" d="M19.5517 23.1723C19.9517 23.1723 20.2759 22.8481 20.2759 22.4482C20.2759 22.0482 19.9517 21.724 19.5517 21.724C19.1518 21.724 18.8276 22.0482 18.8276 22.4482C18.8276 22.8481 19.1518 23.1723 19.5517 23.1723Z" fill="var(--fill-0, white)"/>
<path id="Vector_147" d="M19.5517 27.5177C19.9517 27.5177 20.2759 27.1935 20.2759 26.7936C20.2759 26.3936 19.9517 26.0694 19.5517 26.0694C19.1518 26.0694 18.8276 26.3936 18.8276 26.7936C18.8276 27.1935 19.1518 27.5177 19.5517 27.5177Z" fill="var(--fill-0, white)"/>
<path id="Vector_148" d="M19.5517 30.4133C19.9517 30.4133 20.2759 30.0891 20.2759 29.6891C20.2759 29.2892 19.9517 28.965 19.5517 28.965C19.1518 28.965 18.8276 29.2892 18.8276 29.6891C18.8276 30.0891 19.1518 30.4133 19.5517 30.4133Z" fill="var(--fill-0, white)"/>
<path id="Vector_149" d="M19.5517 31.8619C19.9517 31.8619 20.2759 31.5377 20.2759 31.1378C20.2759 30.7379 19.9517 30.4137 19.5517 30.4137C19.1518 30.4137 18.8276 30.7379 18.8276 31.1378C18.8276 31.5377 19.1518 31.8619 19.5517 31.8619Z" fill="var(--fill-0, white)"/>
<path id="Vector_150" d="M19.5517 33.3106C19.9517 33.3106 20.2759 32.9864 20.2759 32.5864C20.2759 32.1865 19.9517 31.8623 19.5517 31.8623C19.1518 31.8623 18.8276 32.1865 18.8276 32.5864C18.8276 32.9864 19.1518 33.3106 19.5517 33.3106Z" fill="var(--fill-0, white)"/>
<path id="Vector_151" d="M19.5517 34.7587C19.9517 34.7587 20.2759 34.4345 20.2759 34.0345C20.2759 33.6346 19.9517 33.3104 19.5517 33.3104C19.1518 33.3104 18.8276 33.6346 18.8276 34.0345C18.8276 34.4345 19.1518 34.7587 19.5517 34.7587Z" fill="var(--fill-0, white)"/>
<path id="Vector_152" d="M19.5517 40.551C19.9517 40.551 20.2759 40.2268 20.2759 39.8268C20.2759 39.4269 19.9517 39.1027 19.5517 39.1027C19.1518 39.1027 18.8276 39.4269 18.8276 39.8268C18.8276 40.2268 19.1518 40.551 19.5517 40.551Z" fill="var(--fill-0, white)"/>
<path id="Vector_153" d="M19.5517 41.9996C19.9517 41.9996 20.2759 41.6754 20.2759 41.2755C20.2759 40.8756 19.9517 40.5513 19.5517 40.5513C19.1518 40.5513 18.8276 40.8756 18.8276 41.2755C18.8276 41.6754 19.1518 41.9996 19.5517 41.9996Z" fill="var(--fill-0, white)"/>
<path id="Vector_154" d="M21.0001 1.44828C21.4 1.44828 21.7242 1.12407 21.7242 0.724138C21.7242 0.324208 21.4 0 21.0001 0C20.6002 0 20.276 0.324208 20.276 0.724138C20.276 1.12407 20.6002 1.44828 21.0001 1.44828Z" fill="var(--fill-0, white)"/>
<path id="Vector_155" d="M21.0001 2.89692C21.4 2.89692 21.7242 2.57272 21.7242 2.17279C21.7242 1.77286 21.4 1.44865 21.0001 1.44865C20.6002 1.44865 20.276 1.77286 20.276 2.17279C20.276 2.57272 20.6002 2.89692 21.0001 2.89692Z" fill="var(--fill-0, white)"/>
<path id="Vector_156" d="M21.0001 4.34557C21.4 4.34557 21.7242 4.02137 21.7242 3.62144C21.7242 3.22151 21.4 2.8973 21.0001 2.8973C20.6002 2.8973 20.276 3.22151 20.276 3.62144C20.276 4.02137 20.6002 4.34557 21.0001 4.34557Z" fill="var(--fill-0, white)"/>
<path id="Vector_157" d="M21.0001 5.79308C21.4 5.79308 21.7242 5.46888 21.7242 5.06895C21.7242 4.66902 21.4 4.34481 21.0001 4.34481C20.6002 4.34481 20.276 4.66902 20.276 5.06895C20.276 5.46888 20.6002 5.79308 21.0001 5.79308Z" fill="var(--fill-0, white)"/>
<path id="Vector_158" d="M21.0001 10.1379C21.4 10.1379 21.7242 9.81368 21.7242 9.41375C21.7242 9.01382 21.4 8.68962 21.0001 8.68962C20.6002 8.68962 20.276 9.01382 20.276 9.41375C20.276 9.81368 20.6002 10.1379 21.0001 10.1379Z" fill="var(--fill-0, white)"/>
<path id="Vector_159" d="M21.0001 11.586C21.4 11.586 21.7242 11.2618 21.7242 10.8618C21.7242 10.4619 21.4 10.1377 21.0001 10.1377C20.6002 10.1377 20.276 10.4619 20.276 10.8618C20.276 11.2618 20.6002 11.586 21.0001 11.586Z" fill="var(--fill-0, white)"/>
<path id="Vector_160" d="M21.0001 17.3789C21.4 17.3789 21.7242 17.0547 21.7242 16.6547C21.7242 16.2548 21.4 15.9306 21.0001 15.9306C20.6002 15.9306 20.276 16.2548 20.276 16.6547C20.276 17.0547 20.6002 17.3789 21.0001 17.3789Z" fill="var(--fill-0, white)"/>
<path id="Vector_161" d="M21.0001 18.8275C21.4 18.8275 21.7242 18.5033 21.7242 18.1034C21.7242 17.7034 21.4 17.3792 21.0001 17.3792C20.6002 17.3792 20.276 17.7034 20.276 18.1034C20.276 18.5033 20.6002 18.8275 21.0001 18.8275Z" fill="var(--fill-0, white)"/>
<path id="Vector_162" d="M21.0001 20.2756C21.4 20.2756 21.7242 19.9514 21.7242 19.5514C21.7242 19.1515 21.4 18.8273 21.0001 18.8273C20.6002 18.8273 20.276 19.1515 20.276 19.5514C20.276 19.9514 20.6002 20.2756 21.0001 20.2756Z" fill="var(--fill-0, white)"/>
<path id="Vector_163" d="M21.0001 26.069C21.4 26.069 21.7242 25.7448 21.7242 25.3449C21.7242 24.945 21.4 24.6208 21.0001 24.6208C20.6002 24.6208 20.276 24.945 20.276 25.3449C20.276 25.7448 20.6002 26.069 21.0001 26.069Z" fill="var(--fill-0, white)"/>
<path id="Vector_164" d="M21.0001 30.4133C21.4 30.4133 21.7242 30.0891 21.7242 29.6891C21.7242 29.2892 21.4 28.965 21.0001 28.965C20.6002 28.965 20.276 29.2892 20.276 29.6891C20.276 30.0891 20.6002 30.4133 21.0001 30.4133Z" fill="var(--fill-0, white)"/>
<path id="Vector_165" d="M21.0001 31.8619C21.4 31.8619 21.7242 31.5377 21.7242 31.1378C21.7242 30.7379 21.4 30.4137 21.0001 30.4137C20.6002 30.4137 20.276 30.7379 20.276 31.1378C20.276 31.5377 20.6002 31.8619 21.0001 31.8619Z" fill="var(--fill-0, white)"/>
<path id="Vector_166" d="M21.0001 34.7587C21.4 34.7587 21.7242 34.4345 21.7242 34.0345C21.7242 33.6346 21.4 33.3104 21.0001 33.3104C20.6002 33.3104 20.276 33.6346 20.276 34.0345C20.276 34.4345 20.6002 34.7587 21.0001 34.7587Z" fill="var(--fill-0, white)"/>
<path id="Vector_167" d="M21.0001 39.1035C21.4 39.1035 21.7242 38.7793 21.7242 38.3793C21.7242 37.9794 21.4 37.6552 21.0001 37.6552C20.6002 37.6552 20.276 37.9794 20.276 38.3793C20.276 38.7793 20.6002 39.1035 21.0001 39.1035Z" fill="var(--fill-0, white)"/>
<path id="Vector_168" d="M21.0001 40.551C21.4 40.551 21.7242 40.2268 21.7242 39.8268C21.7242 39.4269 21.4 39.1027 21.0001 39.1027C20.6002 39.1027 20.276 39.4269 20.276 39.8268C20.276 40.2268 20.6002 40.551 21.0001 40.551Z" fill="var(--fill-0, white)"/>
<path id="Vector_169" d="M21.0001 41.9996C21.4 41.9996 21.7242 41.6754 21.7242 41.2755C21.7242 40.8756 21.4 40.5513 21.0001 40.5513C20.6002 40.5513 20.276 40.8756 20.276 41.2755C20.276 41.6754 20.6002 41.9996 21.0001 41.9996Z" fill="var(--fill-0, white)"/>
<path id="Vector_170" d="M22.4482 1.44828C22.8481 1.44828 23.1723 1.12407 23.1723 0.724138C23.1723 0.324208 22.8481 0 22.4482 0C22.0482 0 21.724 0.324208 21.724 0.724138C21.724 1.12407 22.0482 1.44828 22.4482 1.44828Z" fill="var(--fill-0, white)"/>
<path id="Vector_171" d="M22.4482 2.89692C22.8481 2.89692 23.1723 2.57272 23.1723 2.17279C23.1723 1.77286 22.8481 1.44865 22.4482 1.44865C22.0482 1.44865 21.724 1.77286 21.724 2.17279C21.724 2.57272 22.0482 2.89692 22.4482 2.89692Z" fill="var(--fill-0, white)"/>
<path id="Vector_172" d="M22.4482 13.0346C22.8481 13.0346 23.1723 12.7104 23.1723 12.3105C23.1723 11.9106 22.8481 11.5863 22.4482 11.5863C22.0482 11.5863 21.724 11.9106 21.724 12.3105C21.724 12.7104 22.0482 13.0346 22.4482 13.0346Z" fill="var(--fill-0, white)"/>
<path id="Vector_173" d="M22.4482 14.4833C22.8481 14.4833 23.1723 14.1591 23.1723 13.7591C23.1723 13.3592 22.8481 13.035 22.4482 13.035C22.0482 13.035 21.724 13.3592 21.724 13.7591C21.724 14.1591 22.0482 14.4833 22.4482 14.4833Z" fill="var(--fill-0, white)"/>
<path id="Vector_174" d="M22.4482 20.2756C22.8481 20.2756 23.1723 19.9514 23.1723 19.5514C23.1723 19.1515 22.8481 18.8273 22.4482 18.8273C22.0482 18.8273 21.724 19.1515 21.724 19.5514C21.724 19.9514 22.0482 20.2756 22.4482 20.2756Z" fill="var(--fill-0, white)"/>
<path id="Vector_175" d="M22.4482 24.621C22.8481 24.621 23.1723 24.2968 23.1723 23.8968C23.1723 23.4969 22.8481 23.1727 22.4482 23.1727C22.0482 23.1727 21.724 23.4969 21.724 23.8968C21.724 24.2968 22.0482 24.621 22.4482 24.621Z" fill="var(--fill-0, white)"/>
<path id="Vector_176" d="M22.4482 31.8619C22.8481 31.8619 23.1723 31.5377 23.1723 31.1378C23.1723 30.7379 22.8481 30.4137 22.4482 30.4137C22.0482 30.4137 21.724 30.7379 21.724 31.1378C21.724 31.5377 22.0482 31.8619 22.4482 31.8619Z" fill="var(--fill-0, white)"/>
<path id="Vector_177" d="M22.4482 33.3106C22.8481 33.3106 23.1723 32.9864 23.1723 32.5864C23.1723 32.1865 22.8481 31.8623 22.4482 31.8623C22.0482 31.8623 21.724 32.1865 21.724 32.5864C21.724 32.9864 22.0482 33.3106 22.4482 33.3106Z" fill="var(--fill-0, white)"/>
<path id="Vector_178" d="M22.4482 34.7587C22.8481 34.7587 23.1723 34.4345 23.1723 34.0345C23.1723 33.6346 22.8481 33.3104 22.4482 33.3104C22.0482 33.3104 21.724 33.6346 21.724 34.0345C21.724 34.4345 22.0482 34.7587 22.4482 34.7587Z" fill="var(--fill-0, white)"/>
<path id="Vector_179" d="M22.4482 40.551C22.8481 40.551 23.1723 40.2268 23.1723 39.8268C23.1723 39.4269 22.8481 39.1027 22.4482 39.1027C22.0482 39.1027 21.724 39.4269 21.724 39.8268C21.724 40.2268 22.0482 40.551 22.4482 40.551Z" fill="var(--fill-0, white)"/>
<path id="Vector_180" d="M23.8965 2.89692C24.2965 2.89692 24.6207 2.57272 24.6207 2.17279C24.6207 1.77286 24.2965 1.44865 23.8965 1.44865C23.4966 1.44865 23.1724 1.77286 23.1724 2.17279C23.1724 2.57272 23.4966 2.89692 23.8965 2.89692Z" fill="var(--fill-0, white)"/>
<path id="Vector_181" d="M23.8965 5.79308C24.2965 5.79308 24.6207 5.46888 24.6207 5.06895C24.6207 4.66902 24.2965 4.34481 23.8965 4.34481C23.4966 4.34481 23.1724 4.66902 23.1724 5.06895C23.1724 5.46888 23.4966 5.79308 23.8965 5.79308Z" fill="var(--fill-0, white)"/>
<path id="Vector_182" d="M23.8965 10.1379C24.2965 10.1379 24.6207 9.81368 24.6207 9.41375C24.6207 9.01382 24.2965 8.68962 23.8965 8.68962C23.4966 8.68962 23.1724 9.01382 23.1724 9.41375C23.1724 9.81368 23.4966 10.1379 23.8965 10.1379Z" fill="var(--fill-0, white)"/>
<path id="Vector_183" d="M23.8965 15.9313C24.2965 15.9313 24.6207 15.6071 24.6207 15.2072C24.6207 14.8073 24.2965 14.4831 23.8965 14.4831C23.4966 14.4831 23.1724 14.8073 23.1724 15.2072C23.1724 15.6071 23.4966 15.9313 23.8965 15.9313Z" fill="var(--fill-0, white)"/>
<path id="Vector_184" d="M23.8965 18.8275C24.2965 18.8275 24.6207 18.5033 24.6207 18.1034C24.6207 17.7034 24.2965 17.3792 23.8965 17.3792C23.4966 17.3792 23.1724 17.7034 23.1724 18.1034C23.1724 18.5033 23.4966 18.8275 23.8965 18.8275Z" fill="var(--fill-0, white)"/>
<path id="Vector_185" d="M23.8965 21.7242C24.2965 21.7242 24.6207 21.4 24.6207 21.0001C24.6207 20.6002 24.2965 20.276 23.8965 20.276C23.4966 20.276 23.1724 20.6002 23.1724 21.0001C23.1724 21.4 23.4966 21.7242 23.8965 21.7242Z" fill="var(--fill-0, white)"/>
<path id="Vector_186" d="M23.8965 30.4133C24.2965 30.4133 24.6207 30.0891 24.6207 29.6891C24.6207 29.2892 24.2965 28.965 23.8965 28.965C23.4966 28.965 23.1724 29.2892 23.1724 29.6891C23.1724 30.0891 23.4966 30.4133 23.8965 30.4133Z" fill="var(--fill-0, white)"/>
<path id="Vector_187" d="M23.8965 31.8619C24.2965 31.8619 24.6207 31.5377 24.6207 31.1378C24.6207 30.7379 24.2965 30.4137 23.8965 30.4137C23.4966 30.4137 23.1724 30.7379 23.1724 31.1378C23.1724 31.5377 23.4966 31.8619 23.8965 31.8619Z" fill="var(--fill-0, white)"/>
<path id="Vector_188" d="M23.8965 37.6554C24.2965 37.6554 24.6207 37.3312 24.6207 36.9312C24.6207 36.5313 24.2965 36.2071 23.8965 36.2071C23.4966 36.2071 23.1724 36.5313 23.1724 36.9312C23.1724 37.3312 23.4966 37.6554 23.8965 37.6554Z" fill="var(--fill-0, white)"/>
<path id="Vector_189" d="M23.8965 40.551C24.2965 40.551 24.6207 40.2268 24.6207 39.8268C24.6207 39.4269 24.2965 39.1027 23.8965 39.1027C23.4966 39.1027 23.1724 39.4269 23.1724 39.8268C23.1724 40.2268 23.4966 40.551 23.8965 40.551Z" fill="var(--fill-0, white)"/>
<path id="Vector_190" d="M23.8965 41.9996C24.2965 41.9996 24.6207 41.6754 24.6207 41.2755C24.6207 40.8756 24.2965 40.5513 23.8965 40.5513C23.4966 40.5513 23.1724 40.8756 23.1724 41.2755C23.1724 41.6754 23.4966 41.9996 23.8965 41.9996Z" fill="var(--fill-0, white)"/>
<path id="Vector_191" d="M25.3448 4.34557C25.7447 4.34557 26.0689 4.02137 26.0689 3.62144C26.0689 3.22151 25.7447 2.8973 25.3448 2.8973C24.9448 2.8973 24.6206 3.22151 24.6206 3.62144C24.6206 4.02137 24.9448 4.34557 25.3448 4.34557Z" fill="var(--fill-0, white)"/>
<path id="Vector_192" d="M25.3448 11.586C25.7447 11.586 26.0689 11.2618 26.0689 10.8618C26.0689 10.4619 25.7447 10.1377 25.3448 10.1377C24.9448 10.1377 24.6206 10.4619 24.6206 10.8618C24.6206 11.2618 24.9448 11.586 25.3448 11.586Z" fill="var(--fill-0, white)"/>
<path id="Vector_193" d="M25.3448 13.0346C25.7447 13.0346 26.0689 12.7104 26.0689 12.3105C26.0689 11.9106 25.7447 11.5863 25.3448 11.5863C24.9448 11.5863 24.6206 11.9106 24.6206 12.3105C24.6206 12.7104 24.9448 13.0346 25.3448 13.0346Z" fill="var(--fill-0, white)"/>
<path id="Vector_194" d="M25.3448 17.3789C25.7447 17.3789 26.0689 17.0547 26.0689 16.6547C26.0689 16.2548 25.7447 15.9306 25.3448 15.9306C24.9448 15.9306 24.6206 16.2548 24.6206 16.6547C24.6206 17.0547 24.9448 17.3789 25.3448 17.3789Z" fill="var(--fill-0, white)"/>
<path id="Vector_195" d="M25.3448 23.1723C25.7447 23.1723 26.0689 22.8481 26.0689 22.4482C26.0689 22.0482 25.7447 21.724 25.3448 21.724C24.9448 21.724 24.6206 22.0482 24.6206 22.4482C24.6206 22.8481 24.9448 23.1723 25.3448 23.1723Z" fill="var(--fill-0, white)"/>
<path id="Vector_196" d="M25.3448 26.069C25.7447 26.069 26.0689 25.7448 26.0689 25.3449C26.0689 24.945 25.7447 24.6208 25.3448 24.6208C24.9448 24.6208 24.6206 24.945 24.6206 25.3449C24.6206 25.7448 24.9448 26.069 25.3448 26.069Z" fill="var(--fill-0, white)"/>
<path id="Vector_197" d="M25.3448 28.9652C25.7447 28.9652 26.0689 28.641 26.0689 28.2411C26.0689 27.8411 25.7447 27.5169 25.3448 27.5169C24.9448 27.5169 24.6206 27.8411 24.6206 28.2411C24.6206 28.641 24.9448 28.9652 25.3448 28.9652Z" fill="var(--fill-0, white)"/>
<path id="Vector_198" d="M25.3448 30.4133C25.7447 30.4133 26.0689 30.0891 26.0689 29.6891C26.0689 29.2892 25.7447 28.965 25.3448 28.965C24.9448 28.965 24.6206 29.2892 24.6206 29.6891C24.6206 30.0891 24.9448 30.4133 25.3448 30.4133Z" fill="var(--fill-0, white)"/>
<path id="Vector_199" d="M25.3448 31.8619C25.7447 31.8619 26.0689 31.5377 26.0689 31.1378C26.0689 30.7379 25.7447 30.4137 25.3448 30.4137C24.9448 30.4137 24.6206 30.7379 24.6206 31.1378C24.6206 31.5377 24.9448 31.8619 25.3448 31.8619Z" fill="var(--fill-0, white)"/>
<path id="Vector_200" d="M25.3448 34.7587C25.7447 34.7587 26.0689 34.4345 26.0689 34.0345C26.0689 33.6346 25.7447 33.3104 25.3448 33.3104C24.9448 33.3104 24.6206 33.6346 24.6206 34.0345C24.6206 34.4345 24.9448 34.7587 25.3448 34.7587Z" fill="var(--fill-0, white)"/>
<path id="Vector_201" d="M25.3448 37.6554C25.7447 37.6554 26.0689 37.3312 26.0689 36.9312C26.0689 36.5313 25.7447 36.2071 25.3448 36.2071C24.9448 36.2071 24.6206 36.5313 24.6206 36.9312C24.6206 37.3312 24.9448 37.6554 25.3448 37.6554Z" fill="var(--fill-0, white)"/>
<path id="Vector_202" d="M25.3448 39.1035C25.7447 39.1035 26.0689 38.7793 26.0689 38.3793C26.0689 37.9794 25.7447 37.6552 25.3448 37.6552C24.9448 37.6552 24.6206 37.9794 24.6206 38.3793C24.6206 38.7793 24.9448 39.1035 25.3448 39.1035Z" fill="var(--fill-0, white)"/>
<path id="Vector_203" d="M25.3448 40.551C25.7447 40.551 26.0689 40.2268 26.0689 39.8268C26.0689 39.4269 25.7447 39.1027 25.3448 39.1027C24.9448 39.1027 24.6206 39.4269 24.6206 39.8268C24.6206 40.2268 24.9448 40.551 25.3448 40.551Z" fill="var(--fill-0, white)"/>
<path id="Vector_204" d="M25.3448 41.9996C25.7447 41.9996 26.0689 41.6754 26.0689 41.2755C26.0689 40.8756 25.7447 40.5513 25.3448 40.5513C24.9448 40.5513 24.6206 40.8756 24.6206 41.2755C24.6206 41.6754 24.9448 41.9996 25.3448 41.9996Z" fill="var(--fill-0, white)"/>
<path id="Vector_205" d="M26.7931 1.44828C27.1931 1.44828 27.5173 1.12407 27.5173 0.724138C27.5173 0.324208 27.1931 0 26.7931 0C26.3932 0 26.069 0.324208 26.069 0.724138C26.069 1.12407 26.3932 1.44828 26.7931 1.44828Z" fill="var(--fill-0, white)"/>
<path id="Vector_206" d="M26.7931 8.68981C27.1931 8.68981 27.5173 8.3656 27.5173 7.96567C27.5173 7.56574 27.1931 7.24154 26.7931 7.24154C26.3932 7.24154 26.069 7.56574 26.069 7.96567C26.069 8.3656 26.3932 8.68981 26.7931 8.68981Z" fill="var(--fill-0, white)"/>
<path id="Vector_207" d="M26.7931 10.1379C27.1931 10.1379 27.5173 9.81368 27.5173 9.41375C27.5173 9.01382 27.1931 8.68962 26.7931 8.68962C26.3932 8.68962 26.069 9.01382 26.069 9.41375C26.069 9.81368 26.3932 10.1379 26.7931 10.1379Z" fill="var(--fill-0, white)"/>
<path id="Vector_208" d="M26.7931 13.0346C27.1931 13.0346 27.5173 12.7104 27.5173 12.3105C27.5173 11.9106 27.1931 11.5863 26.7931 11.5863C26.3932 11.5863 26.069 11.9106 26.069 12.3105C26.069 12.7104 26.3932 13.0346 26.7931 13.0346Z" fill="var(--fill-0, white)"/>
<path id="Vector_209" d="M26.7931 14.4833C27.1931 14.4833 27.5173 14.1591 27.5173 13.7591C27.5173 13.3592 27.1931 13.035 26.7931 13.035C26.3932 13.035 26.069 13.3592 26.069 13.7591C26.069 14.1591 26.3932 14.4833 26.7931 14.4833Z" fill="var(--fill-0, white)"/>
<path id="Vector_210" d="M26.7931 17.3789C27.1931 17.3789 27.5173 17.0547 27.5173 16.6547C27.5173 16.2548 27.1931 15.9306 26.7931 15.9306C26.3932 15.9306 26.069 16.2548 26.069 16.6547C26.069 17.0547 26.3932 17.3789 26.7931 17.3789Z" fill="var(--fill-0, white)"/>
<path id="Vector_211" d="M26.7931 18.8275C27.1931 18.8275 27.5173 18.5033 27.5173 18.1034C27.5173 17.7034 27.1931 17.3792 26.7931 17.3792C26.3932 17.3792 26.069 17.7034 26.069 18.1034C26.069 18.5033 26.3932 18.8275 26.7931 18.8275Z" fill="var(--fill-0, white)"/>
<path id="Vector_212" d="M26.7931 21.7242C27.1931 21.7242 27.5173 21.4 27.5173 21.0001C27.5173 20.6002 27.1931 20.276 26.7931 20.276C26.3932 20.276 26.069 20.6002 26.069 21.0001C26.069 21.4 26.3932 21.7242 26.7931 21.7242Z" fill="var(--fill-0, white)"/>
<path id="Vector_213" d="M26.7931 26.069C27.1931 26.069 27.5173 25.7448 27.5173 25.3449C27.5173 24.945 27.1931 24.6208 26.7931 24.6208C26.3932 24.6208 26.069 24.945 26.069 25.3449C26.069 25.7448 26.3932 26.069 26.7931 26.069Z" fill="var(--fill-0, white)"/>
<path id="Vector_214" d="M26.7931 27.5177C27.1931 27.5177 27.5173 27.1935 27.5173 26.7936C27.5173 26.3936 27.1931 26.0694 26.7931 26.0694C26.3932 26.0694 26.069 26.3936 26.069 26.7936C26.069 27.1935 26.3932 27.5177 26.7931 27.5177Z" fill="var(--fill-0, white)"/>
<path id="Vector_215" d="M26.7931 28.9652C27.1931 28.9652 27.5173 28.641 27.5173 28.2411C27.5173 27.8411 27.1931 27.5169 26.7931 27.5169C26.3932 27.5169 26.069 27.8411 26.069 28.2411C26.069 28.641 26.3932 28.9652 26.7931 28.9652Z" fill="var(--fill-0, white)"/>
<path id="Vector_216" d="M26.7931 30.4133C27.1931 30.4133 27.5173 30.0891 27.5173 29.6891C27.5173 29.2892 27.1931 28.965 26.7931 28.965C26.3932 28.965 26.069 29.2892 26.069 29.6891C26.069 30.0891 26.3932 30.4133 26.7931 30.4133Z" fill="var(--fill-0, white)"/>
<path id="Vector_217" d="M26.7931 31.8619C27.1931 31.8619 27.5173 31.5377 27.5173 31.1378C27.5173 30.7379 27.1931 30.4137 26.7931 30.4137C26.3932 30.4137 26.069 30.7379 26.069 31.1378C26.069 31.5377 26.3932 31.8619 26.7931 31.8619Z" fill="var(--fill-0, white)"/>
<path id="Vector_218" d="M26.7931 34.7587C27.1931 34.7587 27.5173 34.4345 27.5173 34.0345C27.5173 33.6346 27.1931 33.3104 26.7931 33.3104C26.3932 33.3104 26.069 33.6346 26.069 34.0345C26.069 34.4345 26.3932 34.7587 26.7931 34.7587Z" fill="var(--fill-0, white)"/>
<path id="Vector_219" d="M26.7931 37.6554C27.1931 37.6554 27.5173 37.3312 27.5173 36.9312C27.5173 36.5313 27.1931 36.2071 26.7931 36.2071C26.3932 36.2071 26.069 36.5313 26.069 36.9312C26.069 37.3312 26.3932 37.6554 26.7931 37.6554Z" fill="var(--fill-0, white)"/>
<path id="Vector_220" d="M26.7931 40.551C27.1931 40.551 27.5173 40.2268 27.5173 39.8268C27.5173 39.4269 27.1931 39.1027 26.7931 39.1027C26.3932 39.1027 26.069 39.4269 26.069 39.8268C26.069 40.2268 26.3932 40.551 26.7931 40.551Z" fill="var(--fill-0, white)"/>
<path id="Vector_221" d="M26.7931 41.9996C27.1931 41.9996 27.5173 41.6754 27.5173 41.2755C27.5173 40.8756 27.1931 40.5513 26.7931 40.5513C26.3932 40.5513 26.069 40.8756 26.069 41.2755C26.069 41.6754 26.3932 41.9996 26.7931 41.9996Z" fill="var(--fill-0, white)"/>
<path id="Vector_222" d="M28.2412 2.89692C28.6411 2.89692 28.9653 2.57272 28.9653 2.17279C28.9653 1.77286 28.6411 1.44865 28.2412 1.44865C27.8413 1.44865 27.5171 1.77286 27.5171 2.17279C27.5171 2.57272 27.8413 2.89692 28.2412 2.89692Z" fill="var(--fill-0, white)"/>
<path id="Vector_223" d="M28.2412 4.34557C28.6411 4.34557 28.9653 4.02137 28.9653 3.62144C28.9653 3.22151 28.6411 2.8973 28.2412 2.8973C27.8413 2.8973 27.5171 3.22151 27.5171 3.62144C27.5171 4.02137 27.8413 4.34557 28.2412 4.34557Z" fill="var(--fill-0, white)"/>
<path id="Vector_224" d="M28.2412 5.79308C28.6411 5.79308 28.9653 5.46888 28.9653 5.06895C28.9653 4.66902 28.6411 4.34481 28.2412 4.34481C27.8413 4.34481 27.5171 4.66902 27.5171 5.06895C27.5171 5.46888 27.8413 5.79308 28.2412 5.79308Z" fill="var(--fill-0, white)"/>
<path id="Vector_225" d="M28.2412 11.586C28.6411 11.586 28.9653 11.2618 28.9653 10.8618C28.9653 10.4619 28.6411 10.1377 28.2412 10.1377C27.8413 10.1377 27.5171 10.4619 27.5171 10.8618C27.5171 11.2618 27.8413 11.586 28.2412 11.586Z" fill="var(--fill-0, white)"/>
<path id="Vector_226" d="M28.2412 15.9313C28.6411 15.9313 28.9653 15.6071 28.9653 15.2072C28.9653 14.8073 28.6411 14.4831 28.2412 14.4831C27.8413 14.4831 27.5171 14.8073 27.5171 15.2072C27.5171 15.6071 27.8413 15.9313 28.2412 15.9313Z" fill="var(--fill-0, white)"/>
<path id="Vector_227" d="M28.2412 18.8275C28.6411 18.8275 28.9653 18.5033 28.9653 18.1034C28.9653 17.7034 28.6411 17.3792 28.2412 17.3792C27.8413 17.3792 27.5171 17.7034 27.5171 18.1034C27.5171 18.5033 27.8413 18.8275 28.2412 18.8275Z" fill="var(--fill-0, white)"/>
<path id="Vector_228" d="M28.2412 20.2756C28.6411 20.2756 28.9653 19.9514 28.9653 19.5514C28.9653 19.1515 28.6411 18.8273 28.2412 18.8273C27.8413 18.8273 27.5171 19.1515 27.5171 19.5514C27.5171 19.9514 27.8413 20.2756 28.2412 20.2756Z" fill="var(--fill-0, white)"/>
<path id="Vector_229" d="M28.2412 23.1723C28.6411 23.1723 28.9653 22.8481 28.9653 22.4482C28.9653 22.0482 28.6411 21.724 28.2412 21.724C27.8413 21.724 27.5171 22.0482 27.5171 22.4482C27.5171 22.8481 27.8413 23.1723 28.2412 23.1723Z" fill="var(--fill-0, white)"/>
<path id="Vector_230" d="M28.2412 26.069C28.6411 26.069 28.9653 25.7448 28.9653 25.3449C28.9653 24.945 28.6411 24.6208 28.2412 24.6208C27.8413 24.6208 27.5171 24.945 27.5171 25.3449C27.5171 25.7448 27.8413 26.069 28.2412 26.069Z" fill="var(--fill-0, white)"/>
<path id="Vector_231" d="M28.2412 30.4133C28.6411 30.4133 28.9653 30.0891 28.9653 29.6891C28.9653 29.2892 28.6411 28.965 28.2412 28.965C27.8413 28.965 27.5171 29.2892 27.5171 29.6891C27.5171 30.0891 27.8413 30.4133 28.2412 30.4133Z" fill="var(--fill-0, white)"/>
<path id="Vector_232" d="M28.2412 33.3106C28.6411 33.3106 28.9653 32.9864 28.9653 32.5864C28.9653 32.1865 28.6411 31.8623 28.2412 31.8623C27.8413 31.8623 27.5171 32.1865 27.5171 32.5864C27.5171 32.9864 27.8413 33.3106 28.2412 33.3106Z" fill="var(--fill-0, white)"/>
<path id="Vector_233" d="M28.2412 36.2067C28.6411 36.2067 28.9653 35.8825 28.9653 35.4826C28.9653 35.0827 28.6411 34.7585 28.2412 34.7585C27.8413 34.7585 27.5171 35.0827 27.5171 35.4826C27.5171 35.8825 27.8413 36.2067 28.2412 36.2067Z" fill="var(--fill-0, white)"/>
<path id="Vector_234" d="M28.2412 40.551C28.6411 40.551 28.9653 40.2268 28.9653 39.8268C28.9653 39.4269 28.6411 39.1027 28.2412 39.1027C27.8413 39.1027 27.5171 39.4269 27.5171 39.8268C27.5171 40.2268 27.8413 40.551 28.2412 40.551Z" fill="var(--fill-0, white)"/>
<path id="Vector_235" d="M28.2412 41.9996C28.6411 41.9996 28.9653 41.6754 28.9653 41.2755C28.9653 40.8756 28.6411 40.5513 28.2412 40.5513C27.8413 40.5513 27.5171 40.8756 27.5171 41.2755C27.5171 41.6754 27.8413 41.9996 28.2412 41.9996Z" fill="var(--fill-0, white)"/>
<path id="Vector_236" d="M29.6896 1.44828C30.0895 1.44828 30.4137 1.12407 30.4137 0.724138C30.4137 0.324208 30.0895 0 29.6896 0C29.2896 0 28.9654 0.324208 28.9654 0.724138C28.9654 1.12407 29.2896 1.44828 29.6896 1.44828Z" fill="var(--fill-0, white)"/>
<path id="Vector_237" d="M29.6896 10.1379C30.0895 10.1379 30.4137 9.81368 30.4137 9.41375C30.4137 9.01382 30.0895 8.68962 29.6896 8.68962C29.2896 8.68962 28.9654 9.01382 28.9654 9.41375C28.9654 9.81368 29.2896 10.1379 29.6896 10.1379Z" fill="var(--fill-0, white)"/>
<path id="Vector_238" d="M29.6896 11.586C30.0895 11.586 30.4137 11.2618 30.4137 10.8618C30.4137 10.4619 30.0895 10.1377 29.6896 10.1377C29.2896 10.1377 28.9654 10.4619 28.9654 10.8618C28.9654 11.2618 29.2896 11.586 29.6896 11.586Z" fill="var(--fill-0, white)"/>
<path id="Vector_239" d="M29.6896 20.2756C30.0895 20.2756 30.4137 19.9514 30.4137 19.5514C30.4137 19.1515 30.0895 18.8273 29.6896 18.8273C29.2896 18.8273 28.9654 19.1515 28.9654 19.5514C28.9654 19.9514 29.2896 20.2756 29.6896 20.2756Z" fill="var(--fill-0, white)"/>
<path id="Vector_240" d="M29.6896 21.7242C30.0895 21.7242 30.4137 21.4 30.4137 21.0001C30.4137 20.6002 30.0895 20.276 29.6896 20.276C29.2896 20.276 28.9654 20.6002 28.9654 21.0001C28.9654 21.4 29.2896 21.7242 29.6896 21.7242Z" fill="var(--fill-0, white)"/>
<path id="Vector_241" d="M29.6896 24.621C30.0895 24.621 30.4137 24.2968 30.4137 23.8968C30.4137 23.4969 30.0895 23.1727 29.6896 23.1727C29.2896 23.1727 28.9654 23.4969 28.9654 23.8968C28.9654 24.2968 29.2896 24.621 29.6896 24.621Z" fill="var(--fill-0, white)"/>
<path id="Vector_242" d="M29.6896 26.069C30.0895 26.069 30.4137 25.7448 30.4137 25.3449C30.4137 24.945 30.0895 24.6208 29.6896 24.6208C29.2896 24.6208 28.9654 24.945 28.9654 25.3449C28.9654 25.7448 29.2896 26.069 29.6896 26.069Z" fill="var(--fill-0, white)"/>
<path id="Vector_243" d="M29.6896 28.9652C30.0895 28.9652 30.4137 28.641 30.4137 28.2411C30.4137 27.8411 30.0895 27.5169 29.6896 27.5169C29.2896 27.5169 28.9654 27.8411 28.9654 28.2411C28.9654 28.641 29.2896 28.9652 29.6896 28.9652Z" fill="var(--fill-0, white)"/>
<path id="Vector_244" d="M29.6896 30.4133C30.0895 30.4133 30.4137 30.0891 30.4137 29.6891C30.4137 29.2892 30.0895 28.965 29.6896 28.965C29.2896 28.965 28.9654 29.2892 28.9654 29.6891C28.9654 30.0891 29.2896 30.4133 29.6896 30.4133Z" fill="var(--fill-0, white)"/>
<path id="Vector_245" d="M29.6896 31.8619C30.0895 31.8619 30.4137 31.5377 30.4137 31.1378C30.4137 30.7379 30.0895 30.4137 29.6896 30.4137C29.2896 30.4137 28.9654 30.7379 28.9654 31.1378C28.9654 31.5377 29.2896 31.8619 29.6896 31.8619Z" fill="var(--fill-0, white)"/>
<path id="Vector_246" d="M29.6896 33.3106C30.0895 33.3106 30.4137 32.9864 30.4137 32.5864C30.4137 32.1865 30.0895 31.8623 29.6896 31.8623C29.2896 31.8623 28.9654 32.1865 28.9654 32.5864C28.9654 32.9864 29.2896 33.3106 29.6896 33.3106Z" fill="var(--fill-0, white)"/>
<path id="Vector_247" d="M29.6896 34.7587C30.0895 34.7587 30.4137 34.4345 30.4137 34.0345C30.4137 33.6346 30.0895 33.3104 29.6896 33.3104C29.2896 33.3104 28.9654 33.6346 28.9654 34.0345C28.9654 34.4345 29.2896 34.7587 29.6896 34.7587Z" fill="var(--fill-0, white)"/>
<path id="Vector_248" d="M29.6896 36.2067C30.0895 36.2067 30.4137 35.8825 30.4137 35.4826C30.4137 35.0827 30.0895 34.7585 29.6896 34.7585C29.2896 34.7585 28.9654 35.0827 28.9654 35.4826C28.9654 35.8825 29.2896 36.2067 29.6896 36.2067Z" fill="var(--fill-0, white)"/>
<path id="Vector_249" d="M29.6896 37.6554C30.0895 37.6554 30.4137 37.3312 30.4137 36.9312C30.4137 36.5313 30.0895 36.2071 29.6896 36.2071C29.2896 36.2071 28.9654 36.5313 28.9654 36.9312C28.9654 37.3312 29.2896 37.6554 29.6896 37.6554Z" fill="var(--fill-0, white)"/>
<path id="Vector_250" d="M29.6896 40.551C30.0895 40.551 30.4137 40.2268 30.4137 39.8268C30.4137 39.4269 30.0895 39.1027 29.6896 39.1027C29.2896 39.1027 28.9654 39.4269 28.9654 39.8268C28.9654 40.2268 29.2896 40.551 29.6896 40.551Z" fill="var(--fill-0, white)"/>
<path id="Vector_251" d="M29.6896 41.9996C30.0895 41.9996 30.4137 41.6754 30.4137 41.2755C30.4137 40.8756 30.0895 40.5513 29.6896 40.5513C29.2896 40.5513 28.9654 40.8756 28.9654 41.2755C28.9654 41.6754 29.2896 41.9996 29.6896 41.9996Z" fill="var(--fill-0, white)"/>
<path id="Vector_252" d="M31.1382 13.0346C31.5382 13.0346 31.8624 12.7104 31.8624 12.3105C31.8624 11.9106 31.5382 11.5863 31.1382 11.5863C30.7383 11.5863 30.4141 11.9106 30.4141 12.3105C30.4141 12.7104 30.7383 13.0346 31.1382 13.0346Z" fill="var(--fill-0, white)"/>
<path id="Vector_253" d="M31.1382 17.3789C31.5382 17.3789 31.8624 17.0547 31.8624 16.6547C31.8624 16.2548 31.5382 15.9306 31.1382 15.9306C30.7383 15.9306 30.4141 16.2548 30.4141 16.6547C30.4141 17.0547 30.7383 17.3789 31.1382 17.3789Z" fill="var(--fill-0, white)"/>
<path id="Vector_254" d="M31.1382 26.069C31.5382 26.069 31.8624 25.7448 31.8624 25.3449C31.8624 24.945 31.5382 24.6208 31.1382 24.6208C30.7383 24.6208 30.4141 24.945 30.4141 25.3449C30.4141 25.7448 30.7383 26.069 31.1382 26.069Z" fill="var(--fill-0, white)"/>
<path id="Vector_255" d="M31.1382 27.5177C31.5382 27.5177 31.8624 27.1935 31.8624 26.7936C31.8624 26.3936 31.5382 26.0694 31.1382 26.0694C30.7383 26.0694 30.4141 26.3936 30.4141 26.7936C30.4141 27.1935 30.7383 27.5177 31.1382 27.5177Z" fill="var(--fill-0, white)"/>
<path id="Vector_256" d="M31.1382 28.9652C31.5382 28.9652 31.8624 28.641 31.8624 28.2411C31.8624 27.8411 31.5382 27.5169 31.1382 27.5169C30.7383 27.5169 30.4141 27.8411 30.4141 28.2411C30.4141 28.641 30.7383 28.9652 31.1382 28.9652Z" fill="var(--fill-0, white)"/>
<path id="Vector_257" d="M31.1382 30.4133C31.5382 30.4133 31.8624 30.0891 31.8624 29.6891C31.8624 29.2892 31.5382 28.965 31.1382 28.965C30.7383 28.965 30.4141 29.2892 30.4141 29.6891C30.4141 30.0891 30.7383 30.4133 31.1382 30.4133Z" fill="var(--fill-0, white)"/>
<path id="Vector_258" d="M31.1382 36.2067C31.5382 36.2067 31.8624 35.8825 31.8624 35.4826C31.8624 35.0827 31.5382 34.7585 31.1382 34.7585C30.7383 34.7585 30.4141 35.0827 30.4141 35.4826C30.4141 35.8825 30.7383 36.2067 31.1382 36.2067Z" fill="var(--fill-0, white)"/>
<path id="Vector_259" d="M31.1382 41.9996C31.5382 41.9996 31.8624 41.6754 31.8624 41.2755C31.8624 40.8756 31.5382 40.5513 31.1382 40.5513C30.7383 40.5513 30.4141 40.8756 30.4141 41.2755C30.4141 41.6754 30.7383 41.9996 31.1382 41.9996Z" fill="var(--fill-0, white)"/>
<path id="Vector_260" d="M32.5862 13.0346C32.9861 13.0346 33.3103 12.7104 33.3103 12.3105C33.3103 11.9106 32.9861 11.5863 32.5862 11.5863C32.1862 11.5863 31.862 11.9106 31.862 12.3105C31.862 12.7104 32.1862 13.0346 32.5862 13.0346Z" fill="var(--fill-0, white)"/>
<path id="Vector_261" d="M32.5862 14.4833C32.9861 14.4833 33.3103 14.1591 33.3103 13.7591C33.3103 13.3592 32.9861 13.035 32.5862 13.035C32.1862 13.035 31.862 13.3592 31.862 13.7591C31.862 14.1591 32.1862 14.4833 32.5862 14.4833Z" fill="var(--fill-0, white)"/>
<path id="Vector_262" d="M32.5862 15.9313C32.9861 15.9313 33.3103 15.6071 33.3103 15.2072C33.3103 14.8073 32.9861 14.4831 32.5862 14.4831C32.1862 14.4831 31.862 14.8073 31.862 15.2072C31.862 15.6071 32.1862 15.9313 32.5862 15.9313Z" fill="var(--fill-0, white)"/>
<path id="Vector_263" d="M32.5862 17.3789C32.9861 17.3789 33.3103 17.0547 33.3103 16.6547C33.3103 16.2548 32.9861 15.9306 32.5862 15.9306C32.1862 15.9306 31.862 16.2548 31.862 16.6547C31.862 17.0547 32.1862 17.3789 32.5862 17.3789Z" fill="var(--fill-0, white)"/>
<path id="Vector_264" d="M32.5862 20.2756C32.9861 20.2756 33.3103 19.9514 33.3103 19.5514C33.3103 19.1515 32.9861 18.8273 32.5862 18.8273C32.1862 18.8273 31.862 19.1515 31.862 19.5514C31.862 19.9514 32.1862 20.2756 32.5862 20.2756Z" fill="var(--fill-0, white)"/>
<path id="Vector_265" d="M32.5862 24.621C32.9861 24.621 33.3103 24.2968 33.3103 23.8968C33.3103 23.4969 32.9861 23.1727 32.5862 23.1727C32.1862 23.1727 31.862 23.4969 31.862 23.8968C31.862 24.2968 32.1862 24.621 32.5862 24.621Z" fill="var(--fill-0, white)"/>
<path id="Vector_266" d="M32.5862 27.5177C32.9861 27.5177 33.3103 27.1935 33.3103 26.7936C33.3103 26.3936 32.9861 26.0694 32.5862 26.0694C32.1862 26.0694 31.862 26.3936 31.862 26.7936C31.862 27.1935 32.1862 27.5177 32.5862 27.5177Z" fill="var(--fill-0, white)"/>
<path id="Vector_267" d="M32.5862 28.9652C32.9861 28.9652 33.3103 28.641 33.3103 28.2411C33.3103 27.8411 32.9861 27.5169 32.5862 27.5169C32.1862 27.5169 31.862 27.8411 31.862 28.2411C31.862 28.641 32.1862 28.9652 32.5862 28.9652Z" fill="var(--fill-0, white)"/>
<path id="Vector_268" d="M32.5862 30.4133C32.9861 30.4133 33.3103 30.0891 33.3103 29.6891C33.3103 29.2892 32.9861 28.965 32.5862 28.965C32.1862 28.965 31.862 29.2892 31.862 29.6891C31.862 30.0891 32.1862 30.4133 32.5862 30.4133Z" fill="var(--fill-0, white)"/>
<path id="Vector_269" d="M32.5862 33.3106C32.9861 33.3106 33.3103 32.9864 33.3103 32.5864C33.3103 32.1865 32.9861 31.8623 32.5862 31.8623C32.1862 31.8623 31.862 32.1865 31.862 32.5864C31.862 32.9864 32.1862 33.3106 32.5862 33.3106Z" fill="var(--fill-0, white)"/>
<path id="Vector_270" d="M32.5862 36.2067C32.9861 36.2067 33.3103 35.8825 33.3103 35.4826C33.3103 35.0827 32.9861 34.7585 32.5862 34.7585C32.1862 34.7585 31.862 35.0827 31.862 35.4826C31.862 35.8825 32.1862 36.2067 32.5862 36.2067Z" fill="var(--fill-0, white)"/>
<path id="Vector_271" d="M32.5862 39.1035C32.9861 39.1035 33.3103 38.7793 33.3103 38.3793C33.3103 37.9794 32.9861 37.6552 32.5862 37.6552C32.1862 37.6552 31.862 37.9794 31.862 38.3793C31.862 38.7793 32.1862 39.1035 32.5862 39.1035Z" fill="var(--fill-0, white)"/>
<path id="Vector_272" d="M32.5862 40.551C32.9861 40.551 33.3103 40.2268 33.3103 39.8268C33.3103 39.4269 32.9861 39.1027 32.5862 39.1027C32.1862 39.1027 31.862 39.4269 31.862 39.8268C31.862 40.2268 32.1862 40.551 32.5862 40.551Z" fill="var(--fill-0, white)"/>
<path id="Vector_273" d="M32.5862 41.9996C32.9861 41.9996 33.3103 41.6754 33.3103 41.2755C33.3103 40.8756 32.9861 40.5513 32.5862 40.5513C32.1862 40.5513 31.862 40.8756 31.862 41.2755C31.862 41.6754 32.1862 41.9996 32.5862 41.9996Z" fill="var(--fill-0, white)"/>
<path id="Vector_274" d="M34.0347 15.9313C34.4346 15.9313 34.7588 15.6071 34.7588 15.2072C34.7588 14.8073 34.4346 14.4831 34.0347 14.4831C33.6347 14.4831 33.3105 14.8073 33.3105 15.2072C33.3105 15.6071 33.6347 15.9313 34.0347 15.9313Z" fill="var(--fill-0, white)"/>
<path id="Vector_275" d="M34.0347 21.7242C34.4346 21.7242 34.7588 21.4 34.7588 21.0001C34.7588 20.6002 34.4346 20.276 34.0347 20.276C33.6347 20.276 33.3105 20.6002 33.3105 21.0001C33.3105 21.4 33.6347 21.7242 34.0347 21.7242Z" fill="var(--fill-0, white)"/>
<path id="Vector_276" d="M34.0347 23.1723C34.4346 23.1723 34.7588 22.8481 34.7588 22.4482C34.7588 22.0482 34.4346 21.724 34.0347 21.724C33.6347 21.724 33.3105 22.0482 33.3105 22.4482C33.3105 22.8481 33.6347 23.1723 34.0347 23.1723Z" fill="var(--fill-0, white)"/>
<path id="Vector_277" d="M34.0347 24.621C34.4346 24.621 34.7588 24.2968 34.7588 23.8968C34.7588 23.4969 34.4346 23.1727 34.0347 23.1727C33.6347 23.1727 33.3105 23.4969 33.3105 23.8968C33.3105 24.2968 33.6347 24.621 34.0347 24.621Z" fill="var(--fill-0, white)"/>
<path id="Vector_278" d="M34.0347 26.069C34.4346 26.069 34.7588 25.7448 34.7588 25.3449C34.7588 24.945 34.4346 24.6208 34.0347 24.6208C33.6347 24.6208 33.3105 24.945 33.3105 25.3449C33.3105 25.7448 33.6347 26.069 34.0347 26.069Z" fill="var(--fill-0, white)"/>
<path id="Vector_279" d="M34.0347 27.5177C34.4346 27.5177 34.7588 27.1935 34.7588 26.7936C34.7588 26.3936 34.4346 26.0694 34.0347 26.0694C33.6347 26.0694 33.3105 26.3936 33.3105 26.7936C33.3105 27.1935 33.6347 27.5177 34.0347 27.5177Z" fill="var(--fill-0, white)"/>
<path id="Vector_280" d="M34.0347 30.4133C34.4346 30.4133 34.7588 30.0891 34.7588 29.6891C34.7588 29.2892 34.4346 28.965 34.0347 28.965C33.6347 28.965 33.3105 29.2892 33.3105 29.6891C33.3105 30.0891 33.6347 30.4133 34.0347 30.4133Z" fill="var(--fill-0, white)"/>
<path id="Vector_281" d="M34.0347 36.2067C34.4346 36.2067 34.7588 35.8825 34.7588 35.4826C34.7588 35.0827 34.4346 34.7585 34.0347 34.7585C33.6347 34.7585 33.3105 35.0827 33.3105 35.4826C33.3105 35.8825 33.6347 36.2067 34.0347 36.2067Z" fill="var(--fill-0, white)"/>
<path id="Vector_282" d="M34.0347 40.551C34.4346 40.551 34.7588 40.2268 34.7588 39.8268C34.7588 39.4269 34.4346 39.1027 34.0347 39.1027C33.6347 39.1027 33.3105 39.4269 33.3105 39.8268C33.3105 40.2268 33.6347 40.551 34.0347 40.551Z" fill="var(--fill-0, white)"/>
<path id="Vector_283" d="M34.0347 41.9996C34.4346 41.9996 34.7588 41.6754 34.7588 41.2755C34.7588 40.8756 34.4346 40.5513 34.0347 40.5513C33.6347 40.5513 33.3105 40.8756 33.3105 41.2755C33.3105 41.6754 33.6347 41.9996 34.0347 41.9996Z" fill="var(--fill-0, white)"/>
<path id="Vector_284" d="M35.4826 13.0346C35.8825 13.0346 36.2067 12.7104 36.2067 12.3105C36.2067 11.9106 35.8825 11.5863 35.4826 11.5863C35.0827 11.5863 34.7585 11.9106 34.7585 12.3105C34.7585 12.7104 35.0827 13.0346 35.4826 13.0346Z" fill="var(--fill-0, white)"/>
<path id="Vector_285" d="M35.4826 15.9313C35.8825 15.9313 36.2067 15.6071 36.2067 15.2072C36.2067 14.8073 35.8825 14.4831 35.4826 14.4831C35.0827 14.4831 34.7585 14.8073 34.7585 15.2072C34.7585 15.6071 35.0827 15.9313 35.4826 15.9313Z" fill="var(--fill-0, white)"/>
<path id="Vector_286" d="M35.4826 17.3789C35.8825 17.3789 36.2067 17.0547 36.2067 16.6547C36.2067 16.2548 35.8825 15.9306 35.4826 15.9306C35.0827 15.9306 34.7585 16.2548 34.7585 16.6547C34.7585 17.0547 35.0827 17.3789 35.4826 17.3789Z" fill="var(--fill-0, white)"/>
<path id="Vector_287" d="M35.4826 18.8275C35.8825 18.8275 36.2067 18.5033 36.2067 18.1034C36.2067 17.7034 35.8825 17.3792 35.4826 17.3792C35.0827 17.3792 34.7585 17.7034 34.7585 18.1034C34.7585 18.5033 35.0827 18.8275 35.4826 18.8275Z" fill="var(--fill-0, white)"/>
<path id="Vector_288" d="M35.4826 20.2756C35.8825 20.2756 36.2067 19.9514 36.2067 19.5514C36.2067 19.1515 35.8825 18.8273 35.4826 18.8273C35.0827 18.8273 34.7585 19.1515 34.7585 19.5514C34.7585 19.9514 35.0827 20.2756 35.4826 20.2756Z" fill="var(--fill-0, white)"/>
<path id="Vector_289" d="M35.4826 24.621C35.8825 24.621 36.2067 24.2968 36.2067 23.8968C36.2067 23.4969 35.8825 23.1727 35.4826 23.1727C35.0827 23.1727 34.7585 23.4969 34.7585 23.8968C34.7585 24.2968 35.0827 24.621 35.4826 24.621Z" fill="var(--fill-0, white)"/>
<path id="Vector_290" d="M35.4826 27.5177C35.8825 27.5177 36.2067 27.1935 36.2067 26.7936C36.2067 26.3936 35.8825 26.0694 35.4826 26.0694C35.0827 26.0694 34.7585 26.3936 34.7585 26.7936C34.7585 27.1935 35.0827 27.5177 35.4826 27.5177Z" fill="var(--fill-0, white)"/>
<path id="Vector_291" d="M35.4826 30.4133C35.8825 30.4133 36.2067 30.0891 36.2067 29.6891C36.2067 29.2892 35.8825 28.965 35.4826 28.965C35.0827 28.965 34.7585 29.2892 34.7585 29.6891C34.7585 30.0891 35.0827 30.4133 35.4826 30.4133Z" fill="var(--fill-0, white)"/>
<path id="Vector_292" d="M35.4826 31.8619C35.8825 31.8619 36.2067 31.5377 36.2067 31.1378C36.2067 30.7379 35.8825 30.4137 35.4826 30.4137C35.0827 30.4137 34.7585 30.7379 34.7585 31.1378C34.7585 31.5377 35.0827 31.8619 35.4826 31.8619Z" fill="var(--fill-0, white)"/>
<path id="Vector_293" d="M35.4826 33.3106C35.8825 33.3106 36.2067 32.9864 36.2067 32.5864C36.2067 32.1865 35.8825 31.8623 35.4826 31.8623C35.0827 31.8623 34.7585 32.1865 34.7585 32.5864C34.7585 32.9864 35.0827 33.3106 35.4826 33.3106Z" fill="var(--fill-0, white)"/>
<path id="Vector_294" d="M35.4826 34.7587C35.8825 34.7587 36.2067 34.4345 36.2067 34.0345C36.2067 33.6346 35.8825 33.3104 35.4826 33.3104C35.0827 33.3104 34.7585 33.6346 34.7585 34.0345C34.7585 34.4345 35.0827 34.7587 35.4826 34.7587Z" fill="var(--fill-0, white)"/>
<path id="Vector_295" d="M35.4826 36.2067C35.8825 36.2067 36.2067 35.8825 36.2067 35.4826C36.2067 35.0827 35.8825 34.7585 35.4826 34.7585C35.0827 34.7585 34.7585 35.0827 34.7585 35.4826C34.7585 35.8825 35.0827 36.2067 35.4826 36.2067Z" fill="var(--fill-0, white)"/>
<path id="Vector_296" d="M35.4826 37.6554C35.8825 37.6554 36.2067 37.3312 36.2067 36.9312C36.2067 36.5313 35.8825 36.2071 35.4826 36.2071C35.0827 36.2071 34.7585 36.5313 34.7585 36.9312C34.7585 37.3312 35.0827 37.6554 35.4826 37.6554Z" fill="var(--fill-0, white)"/>
<path id="Vector_297" d="M35.4826 40.551C35.8825 40.551 36.2067 40.2268 36.2067 39.8268C36.2067 39.4269 35.8825 39.1027 35.4826 39.1027C35.0827 39.1027 34.7585 39.4269 34.7585 39.8268C34.7585 40.2268 35.0827 40.551 35.4826 40.551Z" fill="var(--fill-0, white)"/>
<path id="Vector_298" d="M36.9311 14.4833C37.331 14.4833 37.6552 14.1591 37.6552 13.7591C37.6552 13.3592 37.331 13.035 36.9311 13.035C36.5312 13.035 36.207 13.3592 36.207 13.7591C36.207 14.1591 36.5312 14.4833 36.9311 14.4833Z" fill="var(--fill-0, white)"/>
<path id="Vector_299" d="M36.9311 15.9313C37.331 15.9313 37.6552 15.6071 37.6552 15.2072C37.6552 14.8073 37.331 14.4831 36.9311 14.4831C36.5312 14.4831 36.207 14.8073 36.207 15.2072C36.207 15.6071 36.5312 15.9313 36.9311 15.9313Z" fill="var(--fill-0, white)"/>
<path id="Vector_300" d="M36.9311 18.8275C37.331 18.8275 37.6552 18.5033 37.6552 18.1034C37.6552 17.7034 37.331 17.3792 36.9311 17.3792C36.5312 17.3792 36.207 17.7034 36.207 18.1034C36.207 18.5033 36.5312 18.8275 36.9311 18.8275Z" fill="var(--fill-0, white)"/>
<path id="Vector_301" d="M36.9311 20.2756C37.331 20.2756 37.6552 19.9514 37.6552 19.5514C37.6552 19.1515 37.331 18.8273 36.9311 18.8273C36.5312 18.8273 36.207 19.1515 36.207 19.5514C36.207 19.9514 36.5312 20.2756 36.9311 20.2756Z" fill="var(--fill-0, white)"/>
<path id="Vector_302" d="M36.9311 23.1723C37.331 23.1723 37.6552 22.8481 37.6552 22.4482C37.6552 22.0482 37.331 21.724 36.9311 21.724C36.5312 21.724 36.207 22.0482 36.207 22.4482C36.207 22.8481 36.5312 23.1723 36.9311 23.1723Z" fill="var(--fill-0, white)"/>
<path id="Vector_303" d="M36.9311 24.621C37.331 24.621 37.6552 24.2968 37.6552 23.8968C37.6552 23.4969 37.331 23.1727 36.9311 23.1727C36.5312 23.1727 36.207 23.4969 36.207 23.8968C36.207 24.2968 36.5312 24.621 36.9311 24.621Z" fill="var(--fill-0, white)"/>
<path id="Vector_304" d="M36.9311 26.069C37.331 26.069 37.6552 25.7448 37.6552 25.3449C37.6552 24.945 37.331 24.6208 36.9311 24.6208C36.5312 24.6208 36.207 24.945 36.207 25.3449C36.207 25.7448 36.5312 26.069 36.9311 26.069Z" fill="var(--fill-0, white)"/>
<path id="Vector_305" d="M36.9311 27.5177C37.331 27.5177 37.6552 27.1935 37.6552 26.7936C37.6552 26.3936 37.331 26.0694 36.9311 26.0694C36.5312 26.0694 36.207 26.3936 36.207 26.7936C36.207 27.1935 36.5312 27.5177 36.9311 27.5177Z" fill="var(--fill-0, white)"/>
<path id="Vector_306" d="M36.9311 30.4133C37.331 30.4133 37.6552 30.0891 37.6552 29.6891C37.6552 29.2892 37.331 28.965 36.9311 28.965C36.5312 28.965 36.207 29.2892 36.207 29.6891C36.207 30.0891 36.5312 30.4133 36.9311 30.4133Z" fill="var(--fill-0, white)"/>
<path id="Vector_307" d="M36.9311 31.8619C37.331 31.8619 37.6552 31.5377 37.6552 31.1378C37.6552 30.7379 37.331 30.4137 36.9311 30.4137C36.5312 30.4137 36.207 30.7379 36.207 31.1378C36.207 31.5377 36.5312 31.8619 36.9311 31.8619Z" fill="var(--fill-0, white)"/>
<path id="Vector_308" d="M36.9311 36.2067C37.331 36.2067 37.6552 35.8825 37.6552 35.4826C37.6552 35.0827 37.331 34.7585 36.9311 34.7585C36.5312 34.7585 36.207 35.0827 36.207 35.4826C36.207 35.8825 36.5312 36.2067 36.9311 36.2067Z" fill="var(--fill-0, white)"/>
<path id="Vector_309" d="M36.9311 37.6554C37.331 37.6554 37.6552 37.3312 37.6552 36.9312C37.6552 36.5313 37.331 36.2071 36.9311 36.2071C36.5312 36.2071 36.207 36.5313 36.207 36.9312C36.207 37.3312 36.5312 37.6554 36.9311 37.6554Z" fill="var(--fill-0, white)"/>
<path id="Vector_310" d="M36.9311 39.1035C37.331 39.1035 37.6552 38.7793 37.6552 38.3793C37.6552 37.9794 37.331 37.6552 36.9311 37.6552C36.5312 37.6552 36.207 37.9794 36.207 38.3793C36.207 38.7793 36.5312 39.1035 36.9311 39.1035Z" fill="var(--fill-0, white)"/>
<path id="Vector_311" d="M38.3792 13.0346C38.7791 13.0346 39.1033 12.7104 39.1033 12.3105C39.1033 11.9106 38.7791 11.5863 38.3792 11.5863C37.9793 11.5863 37.655 11.9106 37.655 12.3105C37.655 12.7104 37.9793 13.0346 38.3792 13.0346Z" fill="var(--fill-0, white)"/>
<path id="Vector_312" d="M38.3792 14.4833C38.7791 14.4833 39.1033 14.1591 39.1033 13.7591C39.1033 13.3592 38.7791 13.035 38.3792 13.035C37.9793 13.035 37.655 13.3592 37.655 13.7591C37.655 14.1591 37.9793 14.4833 38.3792 14.4833Z" fill="var(--fill-0, white)"/>
<path id="Vector_313" d="M38.3792 18.8275C38.7791 18.8275 39.1033 18.5033 39.1033 18.1034C39.1033 17.7034 38.7791 17.3792 38.3792 17.3792C37.9793 17.3792 37.655 17.7034 37.655 18.1034C37.655 18.5033 37.9793 18.8275 38.3792 18.8275Z" fill="var(--fill-0, white)"/>
<path id="Vector_314" d="M38.3792 20.2756C38.7791 20.2756 39.1033 19.9514 39.1033 19.5514C39.1033 19.1515 38.7791 18.8273 38.3792 18.8273C37.9793 18.8273 37.655 19.1515 37.655 19.5514C37.655 19.9514 37.9793 20.2756 38.3792 20.2756Z" fill="var(--fill-0, white)"/>
<path id="Vector_315" d="M38.3792 21.7242C38.7791 21.7242 39.1033 21.4 39.1033 21.0001C39.1033 20.6002 38.7791 20.276 38.3792 20.276C37.9793 20.276 37.655 20.6002 37.655 21.0001C37.655 21.4 37.9793 21.7242 38.3792 21.7242Z" fill="var(--fill-0, white)"/>
<path id="Vector_316" d="M38.3792 23.1723C38.7791 23.1723 39.1033 22.8481 39.1033 22.4482C39.1033 22.0482 38.7791 21.724 38.3792 21.724C37.9793 21.724 37.655 22.0482 37.655 22.4482C37.655 22.8481 37.9793 23.1723 38.3792 23.1723Z" fill="var(--fill-0, white)"/>
<path id="Vector_317" d="M38.3792 24.621C38.7791 24.621 39.1033 24.2968 39.1033 23.8968C39.1033 23.4969 38.7791 23.1727 38.3792 23.1727C37.9793 23.1727 37.655 23.4969 37.655 23.8968C37.655 24.2968 37.9793 24.621 38.3792 24.621Z" fill="var(--fill-0, white)"/>
<path id="Vector_318" d="M38.3792 26.069C38.7791 26.069 39.1033 25.7448 39.1033 25.3449C39.1033 24.945 38.7791 24.6208 38.3792 24.6208C37.9793 24.6208 37.655 24.945 37.655 25.3449C37.655 25.7448 37.9793 26.069 38.3792 26.069Z" fill="var(--fill-0, white)"/>
<path id="Vector_319" d="M38.3792 27.5177C38.7791 27.5177 39.1033 27.1935 39.1033 26.7936C39.1033 26.3936 38.7791 26.0694 38.3792 26.0694C37.9793 26.0694 37.655 26.3936 37.655 26.7936C37.655 27.1935 37.9793 27.5177 38.3792 27.5177Z" fill="var(--fill-0, white)"/>
<path id="Vector_320" d="M38.3792 28.9652C38.7791 28.9652 39.1033 28.641 39.1033 28.2411C39.1033 27.8411 38.7791 27.5169 38.3792 27.5169C37.9793 27.5169 37.655 27.8411 37.655 28.2411C37.655 28.641 37.9793 28.9652 38.3792 28.9652Z" fill="var(--fill-0, white)"/>
<path id="Vector_321" d="M38.3792 34.7587C38.7791 34.7587 39.1033 34.4345 39.1033 34.0345C39.1033 33.6346 38.7791 33.3104 38.3792 33.3104C37.9793 33.3104 37.655 33.6346 37.655 34.0345C37.655 34.4345 37.9793 34.7587 38.3792 34.7587Z" fill="var(--fill-0, white)"/>
<path id="Vector_322" d="M38.3792 36.2067C38.7791 36.2067 39.1033 35.8825 39.1033 35.4826C39.1033 35.0827 38.7791 34.7585 38.3792 34.7585C37.9793 34.7585 37.655 35.0827 37.655 35.4826C37.655 35.8825 37.9793 36.2067 38.3792 36.2067Z" fill="var(--fill-0, white)"/>
<path id="Vector_323" d="M38.3792 37.6554C38.7791 37.6554 39.1033 37.3312 39.1033 36.9312C39.1033 36.5313 38.7791 36.2071 38.3792 36.2071C37.9793 36.2071 37.655 36.5313 37.655 36.9312C37.655 37.3312 37.9793 37.6554 38.3792 37.6554Z" fill="var(--fill-0, white)"/>
<path id="Vector_324" d="M38.3792 39.1035C38.7791 39.1035 39.1033 38.7793 39.1033 38.3793C39.1033 37.9794 38.7791 37.6552 38.3792 37.6552C37.9793 37.6552 37.655 37.9794 37.655 38.3793C37.655 38.7793 37.9793 39.1035 38.3792 39.1035Z" fill="var(--fill-0, white)"/>
<path id="Vector_325" d="M38.3792 41.9996C38.7791 41.9996 39.1033 41.6754 39.1033 41.2755C39.1033 40.8756 38.7791 40.5513 38.3792 40.5513C37.9793 40.5513 37.655 40.8756 37.655 41.2755C37.655 41.6754 37.9793 41.9996 38.3792 41.9996Z" fill="var(--fill-0, white)"/>
<path id="Vector_326" d="M39.8277 13.0346C40.2276 13.0346 40.5518 12.7104 40.5518 12.3105C40.5518 11.9106 40.2276 11.5863 39.8277 11.5863C39.4278 11.5863 39.1036 11.9106 39.1036 12.3105C39.1036 12.7104 39.4278 13.0346 39.8277 13.0346Z" fill="var(--fill-0, white)"/>
<path id="Vector_327" d="M39.8277 14.4833C40.2276 14.4833 40.5518 14.1591 40.5518 13.7591C40.5518 13.3592 40.2276 13.035 39.8277 13.035C39.4278 13.035 39.1036 13.3592 39.1036 13.7591C39.1036 14.1591 39.4278 14.4833 39.8277 14.4833Z" fill="var(--fill-0, white)"/>
<path id="Vector_328" d="M39.8277 15.9313C40.2276 15.9313 40.5518 15.6071 40.5518 15.2072C40.5518 14.8073 40.2276 14.4831 39.8277 14.4831C39.4278 14.4831 39.1036 14.8073 39.1036 15.2072C39.1036 15.6071 39.4278 15.9313 39.8277 15.9313Z" fill="var(--fill-0, white)"/>
<path id="Vector_329" d="M39.8277 21.7242C40.2276 21.7242 40.5518 21.4 40.5518 21.0001C40.5518 20.6002 40.2276 20.276 39.8277 20.276C39.4278 20.276 39.1036 20.6002 39.1036 21.0001C39.1036 21.4 39.4278 21.7242 39.8277 21.7242Z" fill="var(--fill-0, white)"/>
<path id="Vector_330" d="M39.8277 24.621C40.2276 24.621 40.5518 24.2968 40.5518 23.8968C40.5518 23.4969 40.2276 23.1727 39.8277 23.1727C39.4278 23.1727 39.1036 23.4969 39.1036 23.8968C39.1036 24.2968 39.4278 24.621 39.8277 24.621Z" fill="var(--fill-0, white)"/>
<path id="Vector_331" d="M39.8277 26.069C40.2276 26.069 40.5518 25.7448 40.5518 25.3449C40.5518 24.945 40.2276 24.6208 39.8277 24.6208C39.4278 24.6208 39.1036 24.945 39.1036 25.3449C39.1036 25.7448 39.4278 26.069 39.8277 26.069Z" fill="var(--fill-0, white)"/>
<path id="Vector_332" d="M39.8277 27.5177C40.2276 27.5177 40.5518 27.1935 40.5518 26.7936C40.5518 26.3936 40.2276 26.0694 39.8277 26.0694C39.4278 26.0694 39.1036 26.3936 39.1036 26.7936C39.1036 27.1935 39.4278 27.5177 39.8277 27.5177Z" fill="var(--fill-0, white)"/>
<path id="Vector_333" d="M39.8277 31.8619C40.2276 31.8619 40.5518 31.5377 40.5518 31.1378C40.5518 30.7379 40.2276 30.4137 39.8277 30.4137C39.4278 30.4137 39.1036 30.7379 39.1036 31.1378C39.1036 31.5377 39.4278 31.8619 39.8277 31.8619Z" fill="var(--fill-0, white)"/>
<path id="Vector_334" d="M39.8277 34.7587C40.2276 34.7587 40.5518 34.4345 40.5518 34.0345C40.5518 33.6346 40.2276 33.3104 39.8277 33.3104C39.4278 33.3104 39.1036 33.6346 39.1036 34.0345C39.1036 34.4345 39.4278 34.7587 39.8277 34.7587Z" fill="var(--fill-0, white)"/>
<path id="Vector_335" d="M39.8277 40.551C40.2276 40.551 40.5518 40.2268 40.5518 39.8268C40.5518 39.4269 40.2276 39.1027 39.8277 39.1027C39.4278 39.1027 39.1036 39.4269 39.1036 39.8268C39.1036 40.2268 39.4278 40.551 39.8277 40.551Z" fill="var(--fill-0, white)"/>
<path id="Vector_336" d="M41.2756 14.4833C41.6756 14.4833 41.9998 14.1591 41.9998 13.7591C41.9998 13.3592 41.6756 13.035 41.2756 13.035C40.8757 13.035 40.5515 13.3592 40.5515 13.7591C40.5515 14.1591 40.8757 14.4833 41.2756 14.4833Z" fill="var(--fill-0, white)"/>
<path id="Vector_337" d="M41.2756 15.9313C41.6756 15.9313 41.9998 15.6071 41.9998 15.2072C41.9998 14.8073 41.6756 14.4831 41.2756 14.4831C40.8757 14.4831 40.5515 14.8073 40.5515 15.2072C40.5515 15.6071 40.8757 15.9313 41.2756 15.9313Z" fill="var(--fill-0, white)"/>
<path id="Vector_338" d="M41.2756 17.3789C41.6756 17.3789 41.9998 17.0547 41.9998 16.6547C41.9998 16.2548 41.6756 15.9306 41.2756 15.9306C40.8757 15.9306 40.5515 16.2548 40.5515 16.6547C40.5515 17.0547 40.8757 17.3789 41.2756 17.3789Z" fill="var(--fill-0, white)"/>
<path id="Vector_339" d="M41.2756 18.8275C41.6756 18.8275 41.9998 18.5033 41.9998 18.1034C41.9998 17.7034 41.6756 17.3792 41.2756 17.3792C40.8757 17.3792 40.5515 17.7034 40.5515 18.1034C40.5515 18.5033 40.8757 18.8275 41.2756 18.8275Z" fill="var(--fill-0, white)"/>
<path id="Vector_340" d="M41.2756 23.1723C41.6756 23.1723 41.9998 22.8481 41.9998 22.4482C41.9998 22.0482 41.6756 21.724 41.2756 21.724C40.8757 21.724 40.5515 22.0482 40.5515 22.4482C40.5515 22.8481 40.8757 23.1723 41.2756 23.1723Z" fill="var(--fill-0, white)"/>
<path id="Vector_341" d="M41.2756 26.069C41.6756 26.069 41.9998 25.7448 41.9998 25.3449C41.9998 24.945 41.6756 24.6208 41.2756 24.6208C40.8757 24.6208 40.5515 24.945 40.5515 25.3449C40.5515 25.7448 40.8757 26.069 41.2756 26.069Z" fill="var(--fill-0, white)"/>
<path id="Vector_342" d="M41.2756 30.4133C41.6756 30.4133 41.9998 30.0891 41.9998 29.6891C41.9998 29.2892 41.6756 28.965 41.2756 28.965C40.8757 28.965 40.5515 29.2892 40.5515 29.6891C40.5515 30.0891 40.8757 30.4133 41.2756 30.4133Z" fill="var(--fill-0, white)"/>
<path id="Vector_343" d="M41.2756 31.8619C41.6756 31.8619 41.9998 31.5377 41.9998 31.1378C41.9998 30.7379 41.6756 30.4137 41.2756 30.4137C40.8757 30.4137 40.5515 30.7379 40.5515 31.1378C40.5515 31.5377 40.8757 31.8619 41.2756 31.8619Z" fill="var(--fill-0, white)"/>
<path id="Vector_344" d="M41.2756 33.3106C41.6756 33.3106 41.9998 32.9864 41.9998 32.5864C41.9998 32.1865 41.6756 31.8623 41.2756 31.8623C40.8757 31.8623 40.5515 32.1865 40.5515 32.5864C40.5515 32.9864 40.8757 33.3106 41.2756 33.3106Z" fill="var(--fill-0, white)"/>
<path id="Vector_345" d="M41.2756 36.2067C41.6756 36.2067 41.9998 35.8825 41.9998 35.4826C41.9998 35.0827 41.6756 34.7585 41.2756 34.7585C40.8757 34.7585 40.5515 35.0827 40.5515 35.4826C40.5515 35.8825 40.8757 36.2067 41.2756 36.2067Z" fill="var(--fill-0, white)"/>
<path id="Vector_346" d="M41.2756 40.551C41.6756 40.551 41.9998 40.2268 41.9998 39.8268C41.9998 39.4269 41.6756 39.1027 41.2756 39.1027C40.8757 39.1027 40.5515 39.4269 40.5515 39.8268C40.5515 40.2268 40.8757 40.551 41.2756 40.551Z" fill="var(--fill-0, white)"/>
<path id="Vector_347" d="M41.2756 41.9996C41.6756 41.9996 41.9998 41.6754 41.9998 41.2755C41.9998 40.8756 41.6756 40.5513 41.2756 40.5513C40.8757 40.5513 40.5515 40.8756 40.5515 41.2755C40.5515 41.6754 40.8757 41.9996 41.2756 41.9996Z" fill="var(--fill-0, white)"/>
<path id="Vector_348" fill-rule="evenodd" clip-rule="evenodd" d="M0 3.62069V6.51724C0 7.47751 0.381464 8.39844 1.06048 9.07745C1.39669 9.41367 1.79583 9.68036 2.23511 9.86232C2.67439 10.0443 3.14521 10.1379 3.62069 10.1379H6.51724C7.47751 10.1379 8.39844 9.75647 9.07745 9.07745C9.75647 8.39844 10.1379 7.47751 10.1379 6.51724V3.62069C10.1379 3.14521 10.0443 2.67439 9.86232 2.23511C9.68036 1.79583 9.41367 1.39669 9.07745 1.06048C8.74124 0.724263 8.3421 0.457565 7.90282 0.275609C7.46354 0.0936519 6.99272 0 6.51724 0H3.62069C3.14521 0 2.67439 0.0936519 2.23511 0.275609C1.79583 0.457565 1.39669 0.724263 1.06048 1.06048C0.381464 1.73949 0 2.66042 0 3.62069ZM3.62069 1.44828H6.51724C7.0934 1.44828 7.64596 1.67715 8.05337 2.08456C8.46078 2.49197 8.68965 3.04453 8.68965 3.62069V6.51724C8.68965 7.0934 8.46078 7.64596 8.05337 8.05337C7.64596 8.46078 7.0934 8.68965 6.51724 8.68965H3.62069C3.04453 8.68965 2.49197 8.46078 2.08456 8.05337C1.67715 7.64596 1.44828 7.0934 1.44828 6.51724V3.62069C1.44828 3.04453 1.67715 2.49197 2.08456 2.08456C2.49197 1.67715 3.04453 1.44828 3.62069 1.44828Z" fill="var(--fill-0, white)"/>
<path id="Vector_349" d="M5.06886 7.24213C6.26865 7.24213 7.24127 6.2695 7.24127 5.06971C7.24127 3.86992 6.26865 2.8973 5.06886 2.8973C3.86907 2.8973 2.89644 3.86992 2.89644 5.06971C2.89644 6.2695 3.86907 7.24213 5.06886 7.24213Z" fill="var(--fill-0, white)"/>
<path id="Vector_350" fill-rule="evenodd" clip-rule="evenodd" d="M38.3793 0L35.4828 0C34.5225 0 33.6016 0.381464 32.9225 1.06048C32.2435 1.73949 31.8621 2.66042 31.8621 3.62069V6.51724C31.8621 7.47751 32.2435 8.39844 32.9225 9.07745C33.6016 9.75647 34.5225 10.1379 35.4828 10.1379H38.3793C38.8548 10.1379 39.3256 10.0443 39.7649 9.86232C40.2042 9.68036 40.6033 9.41367 40.9395 9.07745C41.2757 8.74124 41.5424 8.3421 41.7244 7.90282C41.9063 7.46354 42 6.99272 42 6.51724V3.62069C42 2.66042 41.6185 1.73949 40.9395 1.06048C40.2605 0.381464 39.3396 0 38.3793 0ZM40.5517 3.62069V6.51724C40.5517 7.0934 40.3228 7.64596 39.9154 8.05337C39.508 8.46077 38.9555 8.68965 38.3793 8.68965H35.4828C34.9066 8.68965 34.354 8.46077 33.9466 8.05337C33.5392 7.64596 33.3103 7.0934 33.3103 6.51724V3.62069C33.3103 3.04453 33.5392 2.49197 33.9466 2.08456C34.354 1.67716 34.9066 1.44828 35.4828 1.44828L38.3793 1.44828C38.9555 1.44828 39.508 1.67716 39.9154 2.08456C40.3228 2.49197 40.5517 3.04453 40.5517 3.62069Z" fill="var(--fill-0, white)"/>
<path id="Vector_351" d="M34.7587 5.06971C34.7587 6.2695 35.7314 7.24213 36.9311 7.24213C38.1309 7.24213 39.1036 6.2695 39.1036 5.06971C39.1036 3.86992 38.1309 2.8973 36.9311 2.8973C35.7314 2.8973 34.7587 3.86992 34.7587 5.06971Z" fill="var(--fill-0, white)"/>
<path id="Vector_352" fill-rule="evenodd" clip-rule="evenodd" d="M3.62069 42H6.51724C7.47751 42 8.39844 41.6185 9.07745 40.9395C9.41367 40.6033 9.68036 40.2042 9.86232 39.7649C10.0443 39.3256 10.1379 38.8548 10.1379 38.3793V35.4828C10.1379 34.5225 9.75647 33.6016 9.07745 32.9225C8.39844 32.2435 7.47751 31.8621 6.51724 31.8621H3.62069C2.66042 31.8621 1.73949 32.2435 1.06048 32.9225C0.381464 33.6016 0 34.5225 0 35.4828L0 38.3793C0 38.8548 0.0936529 39.3256 0.27561 39.7649C0.457566 40.2042 0.724263 40.6033 1.06048 40.9395C1.73949 41.6185 2.66042 42 3.62069 42ZM1.44828 38.3793L1.44828 35.4828C1.44828 34.9066 1.67716 34.354 2.08456 33.9466C2.49197 33.5392 3.04453 33.3103 3.62069 33.3103H6.51724C7.0934 33.3103 7.64596 33.5392 8.05337 33.9466C8.46077 34.354 8.68965 34.9066 8.68965 35.4828V38.3793C8.68965 38.9555 8.46077 39.508 8.05337 39.9154C7.64596 40.3228 7.0934 40.5517 6.51724 40.5517H3.62069C3.04453 40.5517 2.49197 40.3228 2.08456 39.9154C1.67716 39.508 1.44828 38.9555 1.44828 38.3793Z" fill="var(--fill-0, white)"/>
<path id="Vector_353" d="M7.24127 36.9303C7.24127 35.7305 6.26865 34.7579 5.06886 34.7579C3.86907 34.7579 2.89644 35.7305 2.89644 36.9303C2.89644 38.1301 3.86907 39.1027 5.06886 39.1027C6.26865 39.1027 7.24127 38.1301 7.24127 36.9303Z" fill="var(--fill-0, white)"/>
</g>
</mask>
<g mask="url(#mask0_0_481)">
<path id="Vector_354" d="M35.6291 -1.62923H6.37048C1.95221 -1.62923 -1.62952 1.95248 -1.62952 6.37076V35.6294C-1.62952 40.0477 1.9522 43.6294 6.37048 43.6294H35.6291C40.0474 43.6294 43.6291 40.0477 43.6291 35.6294V6.37077C43.6291 1.95249 40.0474 -1.62923 35.6291 -1.62923Z" fill="var(--fill-0, white)"/>
</g>
</g>
</svg>
