<svg preserveAspectRatio="none" width="100%" height="100%" overflow="visible" style="display: block;" viewBox="0 0 64 64" fill="none" xmlns="http://www.w3.org/2000/svg">
<g id="circle-user (1) 1" filter="url(#filter0_d_0_911)">
<path id="Vector" d="M36 43.314C34.748 43.758 33.402 44 32 44C30.598 44 29.252 43.758 28 43.314V41C28 38.794 29.794 37 32 37C34.206 37 36 38.794 36 41V43.314ZM32 27C30.897 27 30 27.897 30 29C30 30.103 30.897 31 32 31C33.103 31 34 30.103 34 29C34 27.897 33.103 27 32 27ZM44 32C44 36.433 41.584 40.311 38 42.389V41C38 37.691 35.309 35 32 35C28.691 35 26 37.691 26 41V42.389C22.416 40.311 20 36.433 20 32C20 25.383 25.383 20 32 20C38.617 20 44 25.383 44 32ZM36 29C36 26.794 34.206 25 32 25C29.794 25 28 26.794 28 29C28 31.206 29.794 33 32 33C34.206 33 36 31.206 36 29Z" fill="var(--fill-0, white)"/>
</g>
<defs>
<filter id="filter0_d_0_911" x="0" y="0" width="64" height="64" filterUnits="userSpaceOnUse" color-interpolation-filters="sRGB">
<feFlood flood-opacity="0" result="BackgroundImageFix"/>
<feColorMatrix in="SourceAlpha" type="matrix" values="0 0 0 0 0 0 0 0 0 0 0 0 0 0 0 0 0 0 127 0" result="hardAlpha"/>
<feOffset/>
<feGaussianBlur stdDeviation="10"/>
<feComposite in2="hardAlpha" operator="out"/>
<feColorMatrix type="matrix" values="0 0 0 0 1 0 0 0 0 1 0 0 0 0 1 0 0 0 0.5 0"/>
<feBlend mode="normal" in2="BackgroundImageFix" result="effect1_dropShadow_0_911"/>
<feBlend mode="normal" in="SourceGraphic" in2="effect1_dropShadow_0_911" result="shape"/>
</filter>
</defs>
</svg>
