<svg width="48" height="48" viewBox="0 0 48 48" fill="none" xmlns="http://www.w3.org/2000/svg">
<g id="Logo">
<g id="Type=Artist, Artist=HANA, Color=Light">
<path id="Vector" d="M15.5158 28.2887V25.5105C15.5158 25.1996 15.8231 24.7969 15.8231 24.7969C15.8231 24.7969 15.5816 24.8253 15.2925 24.9217V23.8315C15.3718 23.523 15.6814 23.5751 15.6814 23.5751C15.6814 23.5751 15.3718 23.1701 15.2925 22.6517V20.1333C15.2925 18.9535 15.0997 18.8139 15.2074 18.4759L15.7165 17.0238C15.1984 17.6137 13.7324 18.9716 13.2165 19.0783C13.2165 19.0783 13.9762 19.4935 13.9762 20.1333V22.4123C13.6269 22.5859 13.0567 22.7402 12.5022 22.8457C12.3821 22.7878 12.2653 22.6426 12.2653 22.6426C12.2653 22.6426 12.1009 22.8366 11.9376 22.9353C11.6292 22.975 11.3594 22.9909 11.1757 22.9784V22.2422C11.2369 21.3165 11.5544 21.4674 11.5544 21.4674C11.5544 21.4674 11.2675 20.9274 11.1757 20.2615V20.1344C11.1757 18.9546 10.983 18.8151 11.0907 18.477L11.3616 17.81C10.8435 18.3999 9.61561 18.9728 9.09974 19.0805C9.09974 19.0805 9.85938 19.4957 9.85938 20.1355V23.2552C9.43647 23.2098 9.04078 23.194 8.70405 23.2178C8.67684 23.515 8.14962 23.827 7.5011 24.1787C7.5011 24.1787 8.78228 23.5604 9.27207 23.5967C9.46822 23.6114 9.66436 23.6296 9.85938 23.65V24.4838L9.30382 23.9393C9.30382 23.9393 9.64055 24.6528 9.47956 24.8899C9.31856 25.1282 8.80722 25.7861 7.87071 26.2989C8.86504 26.5916 10.7369 28.8049 10.8254 29.262C10.9127 29.7192 10.5918 30.6517 10.5918 30.6517C11.4251 30.2864 11.8582 29.4299 12.0589 28.9342C11.8163 28.2955 11.2528 27.5513 10.7018 26.9512C11.1666 26.6994 11.6519 26.5167 11.9376 26.4566C11.9376 26.4566 11.178 26.0414 11.178 25.4016V23.844C11.9557 23.9971 12.678 24.2161 13.2902 24.5235C13.4342 24.6392 13.4796 24.8344 13.4875 24.9217C13.5873 24.8797 13.6644 24.7515 13.8435 24.848C13.8934 24.8843 13.9376 24.9206 13.9796 24.958V25.9676C13.9796 26.1923 13.636 26.5848 13.636 26.5848C13.7562 26.5621 13.958 26.4725 14.1757 26.3511V28.8083C14.1757 29.211 13.8684 30.3 13.7222 30.4101C14.3072 29.9529 14.6417 29.0204 15.1825 29.203C15.7233 29.3857 16.0158 29.0204 16.0158 29.0204C15.7823 29.0204 15.5181 28.8559 15.5181 28.2887H15.5158ZM9.89226 26.1605C9.70178 25.9971 9.54532 25.8837 9.44894 25.8395C9.44894 25.8395 9.70291 25.4844 9.85824 25.0885V25.4004C9.85824 25.7237 9.87298 25.9676 9.89226 26.1605ZM13.9365 24.4203C13.6338 24.2365 13.187 24.0482 12.6678 23.8758C12.5487 23.7635 12.3129 23.6398 12.2347 23.4413C12.1406 23.5071 11.839 23.5774 11.6156 23.5717C11.4694 23.5354 11.322 23.5014 11.1746 23.4696V23.2938C11.6893 23.262 12.7551 23.0295 13.5102 22.9353C13.6474 22.9671 13.7494 23.0624 13.7494 23.0624C13.7494 23.0624 13.8197 22.9523 13.9195 22.8979C13.9387 22.8979 13.958 22.8956 13.9762 22.8956V24.4452C13.9626 24.4373 13.9501 24.4294 13.9365 24.4214V24.4203Z" fill="white"/>
<path id="Vector_2" d="M23.5125 28.028V25.6275C23.6032 25.2713 23.8923 25.336 23.8923 25.336C23.8923 25.336 23.602 25.0206 23.5125 24.3649V23.1726C23.5125 22.5873 23.4762 22.1255 23.4138 21.7852C23.6667 21.6548 23.932 21.4245 24.1655 21.176C24.1655 21.176 23.8254 21.176 23.6927 21.0093C23.5601 20.8425 21.7063 18.1993 21.78 17.9406C21.8537 17.682 22.0465 16.9979 22.0465 16.9979C21.8549 17.2384 20.5544 18.5873 20.0601 19.049C19.5419 19.6389 18.314 20.2118 17.7982 20.3195C17.7982 20.3195 18.5578 20.7347 18.5578 21.3746V22.1743C17.9195 22.1029 17.4546 22.1743 17.297 22.2333C17.297 22.2333 16.9909 22.4625 16.8821 22.737C16.7959 22.847 16.6927 22.9503 16.4966 23.1624C16.4966 23.1624 17.4138 22.5249 17.9694 22.5181C18.1655 22.5158 18.3628 22.5294 18.5589 22.5544V24.7812C18.3617 25.4959 17.9796 25.8034 17.6054 26.0892C17.4637 26.1857 17.3129 26.2844 17.1496 26.3694C17.1496 26.3694 17.5986 26.5237 17.7664 26.644C18.1247 26.9004 19.8356 28.8788 20.1383 29.1919C20.441 29.505 20.3889 30.2503 20.305 30.7075C21.1406 30.1063 21.1508 28.4171 21.1508 28.4171C21.0125 28.1539 20.3084 27.3451 19.6848 26.6791C20.0397 26.5657 20.39 26.5044 20.6349 26.4534C20.6349 26.4534 19.8753 26.0382 19.8753 25.3984V24.197C20.3775 24.3241 20.9716 24.3808 21.4569 24.416C21.6451 24.4625 21.8061 24.5839 21.8061 24.5839C21.8061 24.5839 21.831 24.4863 21.9229 24.4466C22.0023 24.4523 22.0737 24.4568 22.1349 24.4625C22.1553 24.4863 22.1769 24.5124 22.1973 24.5373V28.0246C22.1973 29.2044 22.39 29.3439 22.2823 29.682L22.0113 30.349C22.5295 29.7591 23.7574 29.1862 24.2732 29.0785C24.2732 29.0785 23.5136 28.6633 23.5136 28.0234L23.5125 28.028ZM19.873 21.3757C19.873 21.2101 19.8685 21.0671 19.8628 20.9401C19.8628 20.1834 20.2131 19.3836 20.8197 18.8663C20.941 19.0626 21.8685 20.6111 22.4036 21.378C22.0589 21.4914 21.6746 21.6105 21.4354 21.6604C21.4354 21.6604 22.195 22.5328 22.195 23.1726V23.9713C22.1893 23.9656 22.1837 23.9588 22.178 23.9531C22.0907 23.7773 22.119 23.5742 22.119 23.5742C22.119 23.5742 21.8911 23.6105 21.7007 23.5345C21.4694 23.3564 21.1871 23.1647 20.8367 22.9571C20.5057 22.762 20.1825 22.6111 19.8719 22.4942V21.3746L19.873 21.3757ZM20.8628 24.1199C20.7313 24.0348 20.7007 23.8612 20.7007 23.8612C20.7007 23.8612 20.5691 24.0314 20.2789 24.0042C20.1417 23.969 20.0068 23.9282 19.873 23.8816V22.9026C19.9252 22.9231 19.9762 22.9446 20.0261 22.965C20.1757 23.1023 20.2143 23.3473 20.2143 23.3473C20.2143 23.3473 20.449 23.1749 20.6712 23.2849C21.1961 23.581 21.5125 23.7864 21.9036 24.205C21.5805 24.1947 21.2245 24.1732 20.8639 24.1199H20.8628Z" fill="white"/>
<path id="Vector_3" d="M39.7404 28.028V25.6275C39.8311 25.2713 40.1202 25.336 40.1202 25.336C40.1202 25.336 39.8299 25.0206 39.7404 24.3649V23.1726C39.7404 22.5873 39.7041 22.1255 39.6417 21.7852C39.8946 21.6548 40.1599 21.4245 40.3934 21.176C40.3934 21.176 40.0533 21.176 39.9206 21.0093C39.788 20.8425 37.9342 18.1993 38.0079 17.9406C38.0816 17.682 38.2744 16.9979 38.2744 16.9979C38.0828 17.2384 36.7823 18.5873 36.288 19.049C35.7698 19.6389 34.5419 20.2118 34.0261 20.3195C34.0261 20.3195 34.7857 20.7347 34.7857 21.3746V22.1743C34.1474 22.1029 33.6825 22.1743 33.5249 22.2333C33.5249 22.2333 33.2188 22.4625 33.11 22.737C33.0238 22.847 32.9206 22.9503 32.7245 23.1624C32.7245 23.1624 33.6417 22.5249 34.1973 22.5181C34.3934 22.5158 34.5907 22.5294 34.7868 22.5544V24.7812C34.5896 25.4959 34.2075 25.8034 33.8333 26.0892C33.6916 26.1857 33.5408 26.2844 33.3775 26.3694C33.3775 26.3694 33.8265 26.5237 33.9943 26.644C34.3526 26.9004 36.0635 28.8788 36.3662 29.1919C36.6689 29.505 36.6168 30.2503 36.5329 30.7075C37.3685 30.1063 37.3787 28.4171 37.3787 28.4171C37.2404 28.1539 36.5363 27.3451 35.9127 26.6791C36.2676 26.5657 36.6179 26.5044 36.8628 26.4534C36.8628 26.4534 36.1032 26.0382 36.1032 25.3984V24.197C36.6054 24.3241 37.1995 24.3808 37.6848 24.416C37.873 24.4625 38.034 24.5839 38.034 24.5839C38.034 24.5839 38.059 24.4863 38.1508 24.4466C38.2302 24.4523 38.3016 24.4568 38.3628 24.4625C38.3832 24.4863 38.4048 24.5124 38.4252 24.5373V28.0246C38.4252 29.2044 38.6179 29.3439 38.5102 29.682L38.2392 30.349C38.7574 29.7591 39.9853 29.1862 40.5011 29.0785C40.5011 29.0785 39.7415 28.6633 39.7415 28.0234L39.7404 28.028ZM36.102 21.3757C36.102 21.2101 36.0975 21.0671 36.0918 20.9401C36.0918 20.1834 36.4422 19.3836 37.0488 18.8663C37.1701 19.0626 38.0975 20.6111 38.6327 21.378C38.288 21.4914 37.9036 21.6105 37.6644 21.6604C37.6644 21.6604 38.424 22.5328 38.424 23.1726V23.9713C38.4184 23.9656 38.4127 23.9588 38.407 23.9531C38.3197 23.7773 38.3481 23.5742 38.3481 23.5742C38.3481 23.5742 38.1202 23.6105 37.9297 23.5345C37.6984 23.3564 37.4161 23.1647 37.0658 22.9571C36.7347 22.762 36.4116 22.6111 36.1009 22.4942V21.3746L36.102 21.3757ZM37.0907 24.1199C36.9592 24.0348 36.9286 23.8612 36.9286 23.8612C36.9286 23.8612 36.797 24.0314 36.5068 24.0042C36.3696 23.969 36.2347 23.9282 36.1009 23.8816V22.9026C36.1519 22.9231 36.2041 22.9446 36.254 22.965C36.4036 23.1023 36.4422 23.3473 36.4422 23.3473C36.4422 23.3473 36.6769 23.1749 36.8991 23.2849C37.424 23.581 37.7404 23.7864 38.1315 24.205C37.8084 24.1947 37.4524 24.1732 37.0918 24.1199H37.0907Z" fill="white"/>
<path id="Vector_4" d="M31.525 28.3205V26.3897C31.5783 25.9926 31.8481 25.954 31.8481 25.954C31.8481 25.954 31.6077 25.5422 31.525 24.9932V20.1333C31.525 18.9535 31.3322 18.8139 31.4399 18.4759L31.949 17.0238C31.4309 17.6137 29.9649 18.9716 29.449 19.0783C29.449 19.0783 30.2087 19.4935 30.2087 20.1333V25.0181C30.1565 25.0193 30.0851 25.0147 30.017 24.992C29.8186 24.3965 29.6236 23.8451 29.4343 23.3403C29.3708 23.0953 29.5046 22.8854 29.5046 22.8854C29.5046 22.8854 29.2926 22.8037 29.1656 22.6415C28.6066 21.2246 28.1191 20.2229 27.7801 19.5887C27.7359 18.8979 27.6225 18.7527 27.7121 18.4759L27.983 17.8088C27.4649 18.3987 26.237 18.9716 25.7211 19.0794C25.7211 19.0794 26.4808 19.4946 26.4808 20.1344V21.5672C26.4694 22.1514 26.1304 22.5099 26.1304 22.5099C26.1304 22.5099 26.4059 22.4589 26.4808 22.7572V25.4016C26.4808 25.5785 26.4853 25.7498 26.4921 25.9143C26.1826 25.405 25.9581 24.9875 25.9581 24.8446V24.4339C25.7393 24.983 25.4025 25.5127 25.3731 26.1163C25.3436 26.7198 25.5601 27.0181 25.8232 27.4016C26.1803 27.9223 27.347 29.4685 27.6395 29.9211C27.7846 30.1458 27.932 30.8355 27.9468 31C28.1803 30.2864 27.9173 29.591 28.0204 29.3358C28.1225 29.0794 28.2982 28.6404 28.2982 28.6404C28.2982 28.6404 28.0726 28.3182 27.7608 27.861C28.017 27.549 28.2687 27.2983 28.5556 27.2382C28.5556 27.2382 27.796 26.0414 27.796 25.4016V22.992C27.8515 23.0624 27.9082 23.1338 27.9683 23.2064C28.1168 23.439 28.0613 23.8043 28.0613 23.8043C28.0613 23.8043 28.3243 23.7464 28.4649 23.7918C28.8062 24.1832 29.1712 24.587 29.5148 24.9705C29.491 25.2008 29.4127 25.3891 29.4127 25.3891C29.4127 25.3891 29.6395 25.3641 29.7858 25.5536C29.9479 26.0505 30.093 26.5156 30.2098 26.9081V28.3216C30.2098 29.5014 30.4025 29.6409 30.2948 29.979L30.0238 30.646C30.542 30.0561 31.7699 29.4832 32.2858 29.3755C32.2858 29.3755 31.5261 28.9603 31.5261 28.3205H31.525ZM27.796 20.5428C27.8096 20.5644 27.8243 20.5859 27.8402 20.6097C27.8867 20.6801 27.9377 20.7663 27.991 20.8673L27.9808 20.8616C28.1372 21.1667 28.0363 21.6194 28.0363 21.6194C28.0363 21.6194 28.2812 21.6194 28.432 21.8202C28.7234 22.5167 29.0477 23.3914 29.3515 24.266C28.7937 23.6545 28.2075 23.0488 27.796 22.5791V20.5439V20.5428Z" fill="white"/>
</g>
</g>
</svg>
