<svg width="48" height="48" viewBox="0 0 48 48" fill="none" xmlns="http://www.w3.org/2000/svg">
<g id="Logo">
<g id="Type=Artist, Artist=STARGLOW, Color=Light">
<path id="Vector" d="M38 21.1703H28.5204L25.5898 12L23.9973 17.0061L19.911 29.8574L18.2864 31.0571L18.2574 31.0789L19.8423 26.1197L15.6916 23.0539H20.8221L23.3771 15.0451L22.4102 12.0044L19.4786 21.1746H10L17.6683 26.8374L14.7398 36L21.4863 31.0179L25.5941 18.0979L27.1769 23.0495H32.3084L28.1566 26.1153L29.7426 31.0746L25.5984 28.0142L25.8688 27.1646L24.918 24.1892L23.0562 30.0428L24.008 33.0181L25.0007 29.8956L25.0017 29.8967L33.2602 35.9956L30.3307 26.833L38 21.1703Z" fill="white"/>
</g>
</g>
</svg>
